<svg width="2462" height="2276" xmlns="http://www.w3.org/2000/svg" xmlns:xlink="http://www.w3.org/1999/xlink" overflow="hidden"><defs><clipPath id="clip0"><rect x="873" y="103" width="2462" height="2276"/></clipPath><clipPath id="clip1"><rect x="1518" y="562" width="1818" height="1818"/></clipPath><clipPath id="clip2"><rect x="1518" y="562" width="1818" height="1818"/></clipPath><clipPath id="clip3"><rect x="1518" y="562" width="1818" height="1818"/></clipPath></defs><g clip-path="url(#clip0)" transform="translate(-873 -103)"><g clip-path="url(#clip1)"><g clip-path="url(#clip2)"><g clip-path="url(#clip3)"><path d="M1518 562 3335 562 3335 2379 1518 2379Z" fill="#FFFFFF"/><path d="M1533.9 562 1533.9 2379" stroke="#000000" stroke-width="4.5425" stroke-miterlimit="10" stroke-opacity="0.2" fill="none"/><path d="M1638.38 562 1638.38 2379" stroke="#000000" stroke-width="4.5425" stroke-miterlimit="10" stroke-opacity="0.2" fill="none"/><path d="M1692.89 562 1692.89 2379" stroke="#000000" stroke-width="4.5425" stroke-miterlimit="10" stroke-opacity="0.2" fill="none"/><path d="M1747.4 562 1747.4 2379" stroke="#000000" stroke-width="4.5425" stroke-miterlimit="10" stroke-opacity="0.2" fill="none"/><path d="M1797.36 562 1797.36 2379" stroke="#000000" stroke-width="4.5425" stroke-miterlimit="10" stroke-opacity="0.2" fill="none"/><path d="M1851.87 562 1851.87 2379" stroke="#000000" stroke-width="4.5425" stroke-miterlimit="10" stroke-opacity="0.2" fill="none"/><path d="M1901.84 562 1901.84 2379" stroke="#000000" stroke-width="4.5425" stroke-miterlimit="10" stroke-opacity="0.2" fill="none"/><path d="M1956.35 562 1956.35 2379" stroke="#000000" stroke-width="4.5425" stroke-miterlimit="10" stroke-opacity="0.2" fill="none"/><path d="M2006.32 562 2006.32 2379" stroke="#000000" stroke-width="4.5425" stroke-miterlimit="10" stroke-opacity="0.2" fill="none"/><path d="M2060.83 562 2060.83 2379" stroke="#000000" stroke-width="4.5425" stroke-miterlimit="10" stroke-opacity="0.2" fill="none"/><path d="M2110.8 562 2110.8 2379" stroke="#000000" stroke-width="4.5425" stroke-miterlimit="10" stroke-opacity="0.2" fill="none"/><path d="M2165.31 562 2165.31 2379" stroke="#000000" stroke-width="4.5425" stroke-miterlimit="10" stroke-opacity="0.2" fill="none"/><path d="M2215.27 562 2215.27 2379" stroke="#000000" stroke-width="4.5425" stroke-miterlimit="10" stroke-opacity="0.2" fill="none"/><path d="M2269.78 562 2269.78 2379" stroke="#000000" stroke-width="4.5425" stroke-miterlimit="10" stroke-opacity="0.2" fill="none"/><path d="M2319.75 562 2319.75 2379" stroke="#000000" stroke-width="4.5425" stroke-miterlimit="10" stroke-opacity="0.2" fill="none"/><path d="M2374.26 562 2374.26 2379" stroke="#000000" stroke-width="4.5425" stroke-miterlimit="10" stroke-opacity="0.2" fill="none"/><path d="M2428.77 562 2428.77 2379" stroke="#000000" stroke-width="4.5425" stroke-miterlimit="10" stroke-opacity="0.2" fill="none"/><path d="M2478.74 562 2478.74 2379" stroke="#000000" stroke-width="4.5425" stroke-miterlimit="10" stroke-opacity="0.2" fill="none"/><path d="M2533.25 562 2533.25 2379" stroke="#000000" stroke-width="4.5425" stroke-miterlimit="10" stroke-opacity="0.2" fill="none"/><path d="M2583.22 562 2583.22 2379" stroke="#000000" stroke-width="4.5425" stroke-miterlimit="10" stroke-opacity="0.2" fill="none"/><path d="M2637.73 562 2637.73 2379" stroke="#000000" stroke-width="4.5425" stroke-miterlimit="10" stroke-opacity="0.2" fill="none"/><path d="M2687.69 562 2687.69 2379" stroke="#000000" stroke-width="4.5425" stroke-miterlimit="10" stroke-opacity="0.2" fill="none"/><path d="M2742.2 562 2742.2 2379" stroke="#000000" stroke-width="4.5425" stroke-miterlimit="10" stroke-opacity="0.2" fill="none"/><path d="M2792.17 562 2792.17 2379" stroke="#000000" stroke-width="4.5425" stroke-miterlimit="10" stroke-opacity="0.2" fill="none"/><path d="M2846.68 562 2846.68 2379" stroke="#000000" stroke-width="4.5425" stroke-miterlimit="10" stroke-opacity="0.2" fill="none"/><path d="M2896.65 562 2896.65 2379" stroke="#000000" stroke-width="4.5425" stroke-miterlimit="10" stroke-opacity="0.2" fill="none"/><path d="M2951.16 562 2951.16 2379" stroke="#000000" stroke-width="4.5425" stroke-miterlimit="10" stroke-opacity="0.2" fill="none"/><path d="M3001.13 562 3001.13 2379" stroke="#000000" stroke-width="4.5425" stroke-miterlimit="10" stroke-opacity="0.2" fill="none"/><path d="M3055.64 562 3055.64 2379" stroke="#000000" stroke-width="4.5425" stroke-miterlimit="10" stroke-opacity="0.2" fill="none"/><path d="M3110.15 562 3110.15 2379" stroke="#000000" stroke-width="4.5425" stroke-miterlimit="10" stroke-opacity="0.2" fill="none"/><path d="M3160.11 562 3160.11 2379" stroke="#000000" stroke-width="4.5425" stroke-miterlimit="10" stroke-opacity="0.2" fill="none"/><path d="M3214.62 562 3214.62 2379" stroke="#000000" stroke-width="4.5425" stroke-miterlimit="10" stroke-opacity="0.2" fill="none"/><path d="M3264.59 562 3264.59 2379" stroke="#000000" stroke-width="4.5425" stroke-miterlimit="10" stroke-opacity="0.2" fill="none"/><path d="M3319.1 562 3319.1 2379" stroke="#000000" stroke-width="4.5425" stroke-miterlimit="10" stroke-opacity="0.2" fill="none"/><path d="M1518 2076.92 3335 2076.92" stroke="#000000" stroke-width="4.5425" stroke-miterlimit="10" stroke-opacity="0.2" fill="none"/><path d="M1518 1927.02 3335 1927.02" stroke="#000000" stroke-width="4.5425" stroke-miterlimit="10" stroke-opacity="0.2" fill="none"/><path d="M1518 1772.58 3335 1772.58" stroke="#000000" stroke-width="4.5425" stroke-miterlimit="10" stroke-opacity="0.2" fill="none"/><path d="M1518 1622.67 3335 1622.67" stroke="#000000" stroke-width="4.5425" stroke-miterlimit="10" stroke-opacity="0.2" fill="none"/><path d="M1518 1472.77 3335 1472.77" stroke="#000000" stroke-width="4.5425" stroke-miterlimit="10" stroke-opacity="0.2" fill="none"/><path d="M1518 1318.33 3335 1318.33" stroke="#000000" stroke-width="4.5425" stroke-miterlimit="10" stroke-opacity="0.2" fill="none"/><path d="M1518 1168.42 3335 1168.42" stroke="#000000" stroke-width="4.5425" stroke-miterlimit="10" stroke-opacity="0.2" fill="none"/><path d="M1518 1018.52 3335 1018.52" stroke="#000000" stroke-width="4.5425" stroke-miterlimit="10" stroke-opacity="0.2" fill="none"/><path d="M1518 864.076 3335 864.076" stroke="#000000" stroke-width="4.5425" stroke-miterlimit="10" stroke-opacity="0.2" fill="none"/><path d="M1518 714.174 3335 714.174" stroke="#000000" stroke-width="4.5425" stroke-miterlimit="10" stroke-opacity="0.2" fill="none"/><path d="M1797.36 562 1797.36 2379" stroke="#000000" stroke-width="4.5425" stroke-miterlimit="10" stroke-opacity="0.25" fill="none"/><path d="M2006.32 562 2006.32 2379" stroke="#000000" stroke-width="4.5425" stroke-miterlimit="10" stroke-opacity="0.25" fill="none"/><path d="M2215.27 562 2215.27 2379" stroke="#000000" stroke-width="4.5425" stroke-miterlimit="10" stroke-opacity="0.25" fill="none"/><path d="M2428.77 562 2428.77 2379" stroke="#000000" stroke-width="4.5425" stroke-miterlimit="10" stroke-opacity="0.25" fill="none"/><path d="M2637.73 562 2637.73 2379" stroke="#000000" stroke-width="4.5425" stroke-miterlimit="10" stroke-opacity="0.25" fill="none"/><path d="M2846.68 562 2846.68 2379" stroke="#000000" stroke-width="4.5425" stroke-miterlimit="10" stroke-opacity="0.25" fill="none"/><path d="M3055.64 562 3055.64 2379" stroke="#000000" stroke-width="4.5425" stroke-miterlimit="10" stroke-opacity="0.25" fill="none"/><path d="M3264.59 562 3264.59 2379" stroke="#000000" stroke-width="4.5425" stroke-miterlimit="10" stroke-opacity="0.25" fill="none"/><path d="M1518 1470.5 3335 1470.5" stroke="#000000" stroke-width="4.5425" stroke-miterlimit="10" stroke-opacity="0.25" fill="none"/><path d="M1518 711.903 3335 711.903" stroke="#000000" stroke-width="4.5425" stroke-miterlimit="10" stroke-opacity="0.25" fill="none"/><path d="M1586.14 575.628 1586.14 2365.37" stroke="#000000" stroke-width="6.81375" stroke-miterlimit="10" stroke-opacity="0.9" fill="none"/><path d="M1586.14 2372.19 1572.03 2319.53 1600.25 2319.53 1586.14 2372.19 1572.03 2319.53" stroke="#000000" stroke-width="6.81375" stroke-linejoin="round" stroke-miterlimit="10" stroke-opacity="0.9" fill="#000000" fill-opacity="0.9"/><path d="M1586.14 568.814 1600.25 621.466 1572.03 621.466 1586.14 568.814 1600.25 621.466" stroke="#000000" stroke-width="6.81375" stroke-linejoin="round" stroke-miterlimit="10" stroke-opacity="0.9" fill="#000000" fill-opacity="0.9"/><path d="M1531.63 2229.1 3321.37 2229.1" stroke="#000000" stroke-width="6.81375" stroke-miterlimit="10" stroke-opacity="0.9" fill="none"/><path d="M1524.81 2229.1 1577.47 2214.99 1577.47 2243.21 1524.81 2229.1 1577.47 2214.99" stroke="#000000" stroke-width="6.81375" stroke-linejoin="round" stroke-miterlimit="10" stroke-opacity="0.9" fill="#000000" fill-opacity="0.9"/><path d="M3328.19 2229.1 3275.53 2243.21 3275.53 2214.99 3328.19 2229.1 3275.53 2243.21" stroke="#000000" stroke-width="6.81375" stroke-linejoin="round" stroke-miterlimit="10" stroke-opacity="0.9" fill="#000000" fill-opacity="0.9"/><path d="M1546.74 2258.31C1544.17 2258.31 1542.12 2259.4 1540.59 2261.57 1538.66 2264.34 1537.7 2269.47 1537.7 2276.94 1537.7 2284.41 1538.58 2289.39 1540.33 2291.86 1542.08 2294.33 1544.23 2295.57 1546.8 2295.57 1549.37 2295.57 1551.53 2294.33 1553.27 2291.85 1555.02 2289.36 1555.9 2284.39 1555.9 2276.94 1555.9 2269.45 1555.02 2264.47 1553.27 2262 1551.53 2259.54 1549.35 2258.31 1546.74 2258.31ZM1546.8 2253.68C1549.24 2253.68 1551.39 2254.17 1553.23 2255.16 1555.07 2256.14 1556.59 2257.56 1557.79 2259.41 1558.99 2261.26 1559.94 2263.52 1560.62 2266.18 1561.3 2268.84 1561.64 2272.43 1561.64 2276.94 1561.64 2282.28 1561.09 2286.59 1560 2289.87 1558.9 2293.16 1557.26 2295.69 1555.08 2297.48 1552.89 2299.27 1550.13 2300.17 1546.8 2300.17 1542.41 2300.17 1538.96 2298.59 1536.46 2295.45 1533.46 2291.66 1531.96 2285.49 1531.96 2276.94 1531.96 2271.56 1532.51 2267.23 1533.62 2263.95 1534.73 2260.66 1536.37 2258.13 1538.56 2256.35 1540.74 2254.57 1543.49 2253.68 1546.8 2253.68Z" stroke="#FFFFFF" stroke-width="13.6275" stroke-miterlimit="2" fill="none" fill-rule="evenodd"/><text fill="#000000" fill-opacity="0" font-family="Arial,Arial_MSFontService,sans-serif" font-size="46.4854" x="1531.96" y="2294.36">0</text><text font-family="Arial,Arial_MSFontService,sans-serif" font-weight="400" font-size="14" transform="matrix(4.5425 0 0 4.5425 1529.32 2299)">0</text><path d="M1805.58 2254.49 1828.22 2254.49 1828.22 2259.83 1810.05 2259.83 1807.6 2272.07C1810.33 2270.16 1813.2 2269.21 1816.2 2269.21 1820.18 2269.21 1823.53 2270.59 1826.26 2273.34 1828.99 2276.09 1830.36 2279.63 1830.36 2283.96 1830.36 2288.08 1829.16 2291.64 1826.76 2294.64 1823.84 2298.33 1819.85 2300.17 1814.8 2300.17 1810.66 2300.17 1807.28 2299.01 1804.67 2296.69 1802.05 2294.37 1800.55 2291.3 1800.18 2287.47L1806.05 2286.97C1806.48 2289.83 1807.49 2291.98 1809.07 2293.41 1810.66 2294.85 1812.57 2295.57 1814.8 2295.57 1817.49 2295.57 1819.77 2294.56 1821.64 2292.53 1823.5 2290.5 1824.43 2287.81 1824.43 2284.46 1824.43 2281.27 1823.53 2278.75 1821.74 2276.91 1819.95 2275.07 1817.61 2274.15 1814.71 2274.15 1812.91 2274.15 1811.28 2274.55 1809.84 2275.37 1808.39 2276.19 1807.25 2277.25 1806.42 2278.56L1801.17 2277.87ZM1781.29 2253.68 1784.89 2253.68 1784.89 2299.39 1779.3 2299.39 1779.3 2263.77C1777.96 2265.06 1776.19 2266.34 1774.01 2267.62 1771.82 2268.91 1769.86 2269.87 1768.12 2270.51L1768.12 2265.11C1771.25 2263.64 1773.98 2261.86 1776.32 2259.77 1778.66 2257.68 1780.32 2255.65 1781.29 2253.68Z" stroke="#FFFFFF" stroke-width="13.6275" stroke-miterlimit="2" fill="none" fill-rule="evenodd"/><text fill="#000000" fill-opacity="0" font-family="Arial,Arial_MSFontService,sans-serif" font-size="46.4854" x="1768.12" y="2294.36">15</text><text font-family="Arial,Arial_MSFontService,sans-serif" font-weight="400" font-size="14" transform="matrix(4.5425 0 0 4.5425 1761.2 2299)">15</text><path d="M2024.61 2258.31C2022.05 2258.31 2020 2259.4 2018.46 2261.57 2016.54 2264.34 2015.58 2269.47 2015.58 2276.94 2015.58 2284.41 2016.45 2289.39 2018.2 2291.86 2019.95 2294.33 2022.11 2295.57 2024.67 2295.57 2027.24 2295.57 2029.4 2294.33 2031.15 2291.85 2032.9 2289.36 2033.77 2284.39 2033.77 2276.94 2033.77 2269.45 2032.9 2264.47 2031.15 2262 2029.4 2259.54 2027.22 2258.31 2024.61 2258.31ZM2024.67 2253.68C2027.12 2253.68 2029.26 2254.17 2031.1 2255.16 2032.94 2256.14 2034.47 2257.56 2035.67 2259.41 2036.87 2261.26 2037.81 2263.52 2038.49 2266.18 2039.18 2268.84 2039.52 2272.43 2039.52 2276.94 2039.52 2282.28 2038.97 2286.59 2037.87 2289.87 2036.77 2293.16 2035.13 2295.69 2032.95 2297.48 2030.77 2299.27 2028.01 2300.17 2024.67 2300.17 2020.29 2300.17 2016.84 2298.59 2014.33 2295.45 2011.33 2291.66 2009.83 2285.49 2009.83 2276.94 2009.83 2271.56 2010.39 2267.23 2011.49 2263.95 2012.6 2260.66 2014.25 2258.13 2016.43 2256.35 2018.61 2254.57 2021.36 2253.68 2024.67 2253.68ZM1987.78 2253.68C1990.26 2253.68 1992.55 2254.22 1994.64 2255.28 1996.73 2256.35 1998.33 2257.8 1999.44 2259.64 2000.54 2261.49 2001.1 2263.44 2001.1 2265.51 2001.1 2267.48 2000.57 2269.27 1999.51 2270.89 1998.46 2272.5 1996.89 2273.78 1994.82 2274.74 1997.52 2275.36 1999.61 2276.65 2001.1 2278.6 2002.59 2280.56 2003.33 2283.01 2003.33 2285.95 2003.33 2289.92 2001.88 2293.29 1998.99 2296.05 1996.09 2298.82 1992.42 2300.2 1987.99 2300.2 1984 2300.2 1980.68 2299.01 1978.04 2296.63 1975.4 2294.25 1973.9 2291.16 1973.52 2287.37L1979.11 2286.63C1979.75 2289.8 1980.85 2292.08 1982.39 2293.48 1983.93 2294.87 1985.81 2295.57 1988.02 2295.57 1990.65 2295.57 1992.87 2294.66 1994.68 2292.84 1996.5 2291.02 1997.4 2288.76 1997.4 2286.07 1997.4 2283.5 1996.56 2281.39 1994.89 2279.72 1993.21 2278.05 1991.08 2277.22 1988.49 2277.22 1987.43 2277.22 1986.12 2277.43 1984.55 2277.84L1985.17 2272.93C1985.54 2272.98 1985.84 2273 1986.07 2273 1988.45 2273 1990.59 2272.38 1992.5 2271.13 1994.4 2269.89 1995.35 2267.98 1995.35 2265.39 1995.35 2263.34 1994.66 2261.64 1993.27 2260.3 1991.89 2258.95 1990.09 2258.28 1987.9 2258.28 1985.73 2258.28 1983.91 2258.96 1982.47 2260.33 1981.02 2261.69 1980.09 2263.74 1979.67 2266.48L1974.08 2265.48C1974.76 2261.74 1976.32 2258.83 1978.74 2256.77 1981.16 2254.71 1984.17 2253.68 1987.78 2253.68Z" stroke="#FFFFFF" stroke-width="13.6275" stroke-miterlimit="2" fill="none" fill-rule="evenodd"/><text fill="#000000" fill-opacity="0" font-family="Arial,Arial_MSFontService,sans-serif" font-size="46.5164" x="1973.52" y="2294.38">30</text><text font-family="Arial,Arial_MSFontService,sans-serif" font-weight="400" font-size="14" transform="matrix(4.5425 0 0 4.5425 1970.85 2299)">30</text><path d="M2201.06 2262.84 2186.81 2283.37 2201.06 2283.37ZM2224.89 2254.49 2247.53 2254.49 2247.53 2259.83 2229.36 2259.83 2226.91 2272.07C2229.64 2270.16 2232.51 2269.21 2235.51 2269.21 2239.48 2269.21 2242.84 2270.59 2245.57 2273.34 2248.3 2276.09 2249.67 2279.63 2249.67 2283.96 2249.67 2288.08 2248.47 2291.64 2246.07 2294.64 2243.15 2298.33 2239.16 2300.17 2234.11 2300.17 2229.97 2300.17 2226.59 2299.01 2223.97 2296.69 2221.35 2294.37 2219.86 2291.3 2219.49 2287.47L2225.35 2286.97C2225.79 2289.83 2226.8 2291.98 2228.38 2293.41 2229.97 2294.85 2231.88 2295.57 2234.11 2295.57 2236.8 2295.57 2239.08 2294.56 2240.94 2292.53 2242.81 2290.5 2243.74 2287.81 2243.74 2284.46 2243.74 2281.27 2242.84 2278.75 2241.05 2276.91 2239.26 2275.07 2236.92 2274.15 2234.02 2274.15 2232.22 2274.15 2230.59 2274.55 2229.14 2275.37 2227.69 2276.19 2226.56 2277.25 2225.73 2278.56L2220.48 2277.87ZM2202.09 2253.87 2206.65 2253.87 2206.65 2283.37 2212.8 2283.37 2212.8 2288.49 2206.65 2288.49 2206.65 2299.39 2201.06 2299.39 2201.06 2288.49 2181.31 2288.49 2181.31 2283.37Z" stroke="#FFFFFF" stroke-width="13.6275" stroke-miterlimit="2" fill="none" fill-rule="evenodd"/><text fill="#000000" fill-opacity="0" font-family="Arial,Arial_MSFontService,sans-serif" font-size="46.2991" x="2181.31" y="2294.38">45</text><text font-family="Arial,Arial_MSFontService,sans-serif" font-weight="400" font-size="14" transform="matrix(4.5425 0 0 4.5425 2180.51 2299)">45</text><path d="M2408.05 2274.8C2405.52 2274.8 2403.38 2275.7 2401.62 2277.52 2399.86 2279.33 2398.98 2281.7 2398.98 2284.64 2398.98 2286.57 2399.39 2288.41 2400.21 2290.17 2401.02 2291.93 2402.17 2293.27 2403.64 2294.19 2405.11 2295.11 2406.65 2295.57 2408.26 2295.57 2410.62 2295.57 2412.65 2294.62 2414.35 2292.72 2416.05 2290.81 2416.9 2288.22 2416.9 2284.95 2416.9 2281.81 2416.06 2279.33 2414.38 2277.52 2412.7 2275.7 2410.59 2274.8 2408.05 2274.8ZM2443.92 2258.31C2441.35 2258.31 2439.3 2259.4 2437.77 2261.57 2435.85 2264.34 2434.88 2269.47 2434.88 2276.94 2434.88 2284.41 2435.76 2289.39 2437.51 2291.86 2439.26 2294.33 2441.42 2295.57 2443.98 2295.57 2446.55 2295.57 2448.71 2294.33 2450.46 2291.85 2452.21 2289.36 2453.08 2284.39 2453.08 2276.94 2453.08 2269.45 2452.21 2264.47 2450.46 2262 2448.71 2259.54 2446.53 2258.31 2443.92 2258.31ZM2443.98 2253.68C2446.43 2253.68 2448.57 2254.17 2450.41 2255.16 2452.25 2256.14 2453.77 2257.56 2454.97 2259.41 2456.18 2261.26 2457.12 2263.52 2457.8 2266.18 2458.48 2268.84 2458.83 2272.43 2458.83 2276.94 2458.83 2282.28 2458.28 2286.59 2457.18 2289.87 2456.08 2293.16 2454.44 2295.69 2452.26 2297.48 2450.07 2299.27 2447.32 2300.17 2443.98 2300.17 2439.59 2300.17 2436.15 2298.59 2433.64 2295.45 2430.64 2291.66 2429.14 2285.49 2429.14 2276.94 2429.14 2271.56 2429.69 2267.23 2430.8 2263.95 2431.91 2260.66 2433.55 2258.13 2435.74 2256.35 2437.92 2254.57 2440.67 2253.68 2443.98 2253.68ZM2408.88 2253.68C2412.47 2253.68 2415.4 2254.69 2417.69 2256.69 2419.98 2258.7 2421.35 2261.48 2421.8 2265.02L2416.24 2265.45C2415.75 2263.26 2415.04 2261.66 2414.13 2260.67 2412.62 2259.08 2410.76 2258.28 2408.54 2258.28 2406.76 2258.28 2405.2 2258.77 2403.85 2259.77 2402.09 2261.05 2400.71 2262.93 2399.69 2265.39 2398.68 2267.85 2398.15 2271.36 2398.11 2275.92 2399.45 2273.87 2401.1 2272.34 2403.05 2271.35 2404.99 2270.36 2407.03 2269.86 2409.16 2269.86 2412.89 2269.86 2416.06 2271.23 2418.68 2273.98 2421.3 2276.72 2422.61 2280.26 2422.61 2284.61 2422.61 2287.47 2421.99 2290.12 2420.76 2292.58 2419.53 2295.03 2417.84 2296.91 2415.68 2298.21 2413.53 2299.52 2411.09 2300.17 2408.36 2300.17 2403.7 2300.17 2399.9 2298.45 2396.96 2295.03 2394.02 2291.6 2392.55 2285.96 2392.55 2278.09 2392.55 2269.29 2394.18 2262.89 2397.43 2258.9 2400.26 2255.42 2404.08 2253.68 2408.88 2253.68Z" stroke="#FFFFFF" stroke-width="13.6275" stroke-miterlimit="2" fill="none" fill-rule="evenodd"/><text fill="#000000" fill-opacity="0" font-family="Arial,Arial_MSFontService,sans-serif" font-size="46.4854" x="2392.55" y="2294.36">60</text><text font-family="Arial,Arial_MSFontService,sans-serif" font-weight="400" font-size="14" transform="matrix(4.5425 0 0 4.5425 2390.16 2299)">60</text><path d="M2644.2 2254.49 2666.83 2254.49 2666.83 2259.83 2648.67 2259.83 2646.21 2272.07C2648.95 2270.16 2651.81 2269.21 2654.82 2269.21 2658.79 2269.21 2662.14 2270.59 2664.88 2273.34 2667.61 2276.09 2668.98 2279.63 2668.98 2283.96 2668.98 2288.08 2667.78 2291.64 2665.37 2294.64 2662.46 2298.33 2658.47 2300.17 2653.42 2300.17 2649.28 2300.17 2645.9 2299.01 2643.28 2296.69 2640.66 2294.37 2639.17 2291.3 2638.79 2287.47L2644.66 2286.97C2645.1 2289.83 2646.11 2291.98 2647.69 2293.41 2649.27 2294.85 2651.18 2295.57 2653.42 2295.57 2656.11 2295.57 2658.39 2294.56 2660.25 2292.53 2662.11 2290.5 2663.05 2287.81 2663.05 2284.46 2663.05 2281.27 2662.15 2278.75 2660.36 2276.91 2658.57 2275.07 2656.22 2274.15 2653.33 2274.15 2651.52 2274.15 2649.9 2274.55 2648.45 2275.37 2647 2276.19 2645.86 2277.25 2645.03 2278.56L2639.79 2277.87ZM2602.83 2254.46 2632.29 2254.46 2632.29 2258.81C2629.4 2261.89 2626.52 2265.99 2623.68 2271.1 2620.83 2276.22 2618.63 2281.47 2617.08 2286.88 2615.96 2290.69 2615.25 2294.86 2614.94 2299.39L2609.19 2299.39C2609.25 2295.81 2609.96 2291.48 2611.3 2286.41 2612.65 2281.34 2614.58 2276.45 2617.09 2271.74 2619.61 2267.03 2622.29 2263.06 2625.12 2259.83L2602.83 2259.83Z" stroke="#FFFFFF" stroke-width="13.6275" stroke-miterlimit="2" fill="none" fill-rule="evenodd"/><text fill="#000000" fill-opacity="0" font-family="Arial,Arial_MSFontService,sans-serif" font-size="45.709" x="2602.83" y="2294.45">75</text><text font-family="Arial,Arial_MSFontService,sans-serif" font-weight="400" font-size="14" transform="matrix(4.5425 0 0 4.5425 2599.81 2299)">75</text><path d="M2863.23 2258.31C2860.66 2258.31 2858.61 2259.4 2857.08 2261.57 2855.15 2264.34 2854.19 2269.47 2854.19 2276.94 2854.19 2284.41 2855.07 2289.39 2856.82 2291.86 2858.57 2294.33 2860.72 2295.57 2863.29 2295.57 2865.86 2295.57 2868.02 2294.33 2869.76 2291.85 2871.51 2289.36 2872.39 2284.39 2872.39 2276.94 2872.39 2269.45 2871.51 2264.47 2869.76 2262 2868.02 2259.54 2865.84 2258.31 2863.23 2258.31ZM2827.11 2258.31C2824.62 2258.31 2822.46 2259.32 2820.62 2261.35 2818.77 2263.38 2817.85 2266.01 2817.85 2269.24 2817.85 2272.14 2818.73 2274.49 2820.48 2276.3 2822.23 2278.12 2824.38 2279.02 2826.95 2279.02 2829.54 2279.02 2831.67 2278.12 2833.33 2276.3 2835 2274.49 2835.83 2271.98 2835.83 2268.77 2835.83 2265.57 2834.98 2263.02 2833.27 2261.14 2831.56 2259.25 2829.51 2258.31 2827.11 2258.31ZM2863.29 2253.68C2865.73 2253.68 2867.88 2254.17 2869.72 2255.16 2871.56 2256.14 2873.08 2257.56 2874.28 2259.41 2875.48 2261.26 2876.43 2263.52 2877.11 2266.18 2877.79 2268.84 2878.13 2272.43 2878.13 2276.94 2878.13 2282.28 2877.58 2286.59 2876.49 2289.87 2875.39 2293.16 2873.75 2295.69 2871.57 2297.48 2869.38 2299.27 2866.62 2300.17 2863.29 2300.17 2858.9 2300.17 2855.45 2298.59 2852.95 2295.45 2849.95 2291.66 2848.45 2285.49 2848.45 2276.94 2848.45 2271.56 2849 2267.23 2850.11 2263.95 2851.22 2260.66 2852.86 2258.13 2855.05 2256.35 2857.23 2254.57 2859.98 2253.68 2863.29 2253.68ZM2826.42 2253.68C2829.38 2253.68 2832.09 2254.48 2834.54 2256.07 2837 2257.67 2838.86 2259.94 2840.13 2262.89 2841.41 2265.84 2842.04 2270.11 2842.04 2275.7 2842.04 2281.52 2841.41 2286.15 2840.15 2289.59 2838.88 2293.04 2837.01 2295.67 2834.51 2297.47 2832.02 2299.27 2829.09 2300.17 2825.74 2300.17 2822.18 2300.17 2819.27 2299.18 2817.01 2297.2 2814.76 2295.23 2813.4 2292.45 2812.95 2288.86L2818.32 2288.37C2818.77 2290.89 2819.64 2292.73 2820.93 2293.86 2822.21 2295 2823.86 2295.57 2825.86 2295.57 2827.58 2295.57 2829.09 2295.18 2830.38 2294.39 2831.68 2293.61 2832.74 2292.55 2833.56 2291.24 2834.39 2289.93 2835.09 2288.15 2835.64 2285.91 2836.2 2283.68 2836.48 2281.4 2836.48 2279.08 2836.48 2278.83 2836.47 2278.46 2836.45 2277.97 2835.33 2279.75 2833.81 2281.19 2831.87 2282.3 2829.94 2283.4 2827.84 2283.96 2825.58 2283.96 2821.82 2283.96 2818.63 2282.59 2816.02 2279.86 2813.41 2277.13 2812.11 2273.52 2812.11 2269.05 2812.11 2264.44 2813.47 2260.72 2816.19 2257.91 2818.91 2255.09 2822.32 2253.68 2826.42 2253.68Z" stroke="#FFFFFF" stroke-width="13.6275" stroke-miterlimit="2" fill="none" fill-rule="evenodd"/><text fill="#000000" fill-opacity="0" font-family="Arial,Arial_MSFontService,sans-serif" font-size="46.4854" x="2812.11" y="2294.36">90</text><text font-family="Arial,Arial_MSFontService,sans-serif" font-weight="400" font-size="14" transform="matrix(4.5425 0 0 4.5425 2809.47 2299)">90</text><path d="M3054.71 2258.31C3052.15 2258.31 3050.1 2259.4 3048.56 2261.57 3046.64 2264.34 3045.68 2269.47 3045.68 2276.94 3045.68 2284.41 3046.55 2289.39 3048.3 2291.86 3050.05 2294.33 3052.21 2295.57 3054.77 2295.57 3057.34 2295.57 3059.5 2294.33 3061.25 2291.85 3063 2289.36 3063.87 2284.39 3063.87 2276.94 3063.87 2269.45 3063 2264.47 3061.25 2262 3059.5 2259.54 3057.32 2258.31 3054.71 2258.31ZM3081.67 2254.49 3104.31 2254.49 3104.31 2259.83 3086.15 2259.83 3083.69 2272.07C3086.43 2270.16 3089.29 2269.21 3092.29 2269.21 3096.27 2269.21 3099.62 2270.59 3102.35 2273.34 3105.09 2276.09 3106.45 2279.63 3106.45 2283.96 3106.45 2288.08 3105.25 2291.64 3102.85 2294.64 3099.93 2298.33 3095.95 2300.17 3090.9 2300.17 3086.76 2300.17 3083.38 2299.01 3080.76 2296.69 3078.14 2294.37 3076.64 2291.3 3076.27 2287.47L3082.14 2286.97C3082.57 2289.83 3083.58 2291.98 3085.17 2293.41 3086.75 2294.85 3088.66 2295.57 3090.9 2295.57 3093.59 2295.57 3095.86 2294.56 3097.73 2292.53 3099.59 2290.5 3100.52 2287.81 3100.52 2284.46 3100.52 2281.27 3099.63 2278.75 3097.84 2276.91 3096.05 2275.07 3093.7 2274.15 3090.8 2274.15 3089 2274.15 3087.38 2274.55 3085.93 2275.37 3084.48 2276.19 3083.34 2277.25 3082.51 2278.56L3077.26 2277.87ZM3054.77 2253.68C3057.22 2253.68 3059.36 2254.17 3061.2 2255.16 3063.04 2256.14 3064.57 2257.56 3065.77 2259.41 3066.97 2261.26 3067.91 2263.52 3068.59 2266.18 3069.28 2268.84 3069.62 2272.43 3069.62 2276.94 3069.62 2282.28 3069.07 2286.59 3067.97 2289.87 3066.87 2293.16 3065.23 2295.69 3063.05 2297.48 3060.87 2299.27 3058.11 2300.17 3054.77 2300.17 3050.39 2300.17 3046.94 2298.59 3044.43 2295.45 3041.43 2291.66 3039.93 2285.49 3039.93 2276.94 3039.93 2271.56 3040.48 2267.23 3041.59 2263.95 3042.7 2260.66 3044.35 2258.13 3046.53 2256.35 3048.71 2254.57 3051.46 2253.68 3054.77 2253.68ZM3021.04 2253.68 3024.64 2253.68 3024.64 2299.39 3019.06 2299.39 3019.06 2263.77C3017.71 2265.06 3015.94 2266.34 3013.76 2267.62 3011.58 2268.91 3009.62 2269.87 3007.88 2270.51L3007.88 2265.11C3011 2263.64 3013.73 2261.86 3016.07 2259.77 3018.41 2257.68 3020.07 2255.65 3021.04 2253.68Z" stroke="#FFFFFF" stroke-width="13.6275" stroke-miterlimit="2" fill="none" fill-rule="evenodd"/><text fill="#000000" fill-opacity="0" font-family="Arial,Arial_MSFontService,sans-serif" font-size="46.4854" x="3007.88" y="2294.36">105</text><text font-family="Arial,Arial_MSFontService,sans-serif" font-weight="400" font-size="14" transform="matrix(4.5425 0 0 4.5425 3000.95 2299)">105</text><path d="M3300.71 2258.31C3298.14 2258.31 3296.09 2259.4 3294.56 2261.57 3292.63 2264.34 3291.67 2269.47 3291.67 2276.94 3291.67 2284.41 3292.54 2289.39 3294.29 2291.86 3296.04 2294.33 3298.2 2295.57 3300.77 2295.57 3303.33 2295.57 3305.49 2294.33 3307.24 2291.85 3308.99 2289.36 3309.87 2284.39 3309.87 2276.94 3309.87 2269.45 3308.99 2264.47 3307.24 2262 3305.49 2259.54 3303.31 2258.31 3300.71 2258.31ZM3300.77 2253.68C3303.21 2253.68 3305.35 2254.17 3307.2 2255.16 3309.04 2256.14 3310.56 2257.56 3311.76 2259.41 3312.96 2261.26 3313.9 2263.52 3314.59 2266.18 3315.27 2268.84 3315.61 2272.43 3315.61 2276.94 3315.61 2282.28 3315.06 2286.59 3313.97 2289.87 3312.87 2293.16 3311.23 2295.69 3309.04 2297.48 3306.86 2299.27 3304.1 2300.17 3300.77 2300.17 3296.38 2300.17 3292.93 2298.59 3290.43 2295.45 3287.43 2291.66 3285.92 2285.49 3285.92 2276.94 3285.92 2271.56 3286.48 2267.23 3287.59 2263.95 3288.69 2260.66 3290.34 2258.13 3292.52 2256.35 3294.71 2254.57 3297.46 2253.68 3300.77 2253.68ZM3264.71 2253.68C3269.08 2253.68 3272.53 2254.89 3275.08 2257.32 3277.62 2259.74 3278.9 2262.74 3278.9 2266.32 3278.9 2268.14 3278.53 2269.93 3277.78 2271.69 3277.04 2273.45 3275.8 2275.31 3274.07 2277.25 3272.34 2279.2 3269.47 2281.87 3265.45 2285.26 3262.1 2288.08 3259.95 2289.99 3258.99 2290.99 3258.04 2292 3257.25 2293 3256.63 2294.02L3278.96 2294.02 3278.96 2299.39 3248.87 2299.39C3248.83 2298.05 3249.05 2296.75 3249.52 2295.51 3250.29 2293.46 3251.52 2291.44 3253.2 2289.45 3254.89 2287.47 3257.33 2285.17 3260.52 2282.56 3265.46 2278.5 3268.81 2275.29 3270.55 2272.92 3272.28 2270.55 3273.15 2268.31 3273.15 2266.2 3273.15 2263.98 3272.36 2262.11 3270.78 2260.59 3269.19 2259.07 3267.13 2258.31 3264.58 2258.31 3261.89 2258.31 3259.74 2259.12 3258.12 2260.73 3256.51 2262.35 3255.69 2264.58 3255.67 2267.44L3249.93 2266.85C3250.32 2262.56 3251.8 2259.3 3254.37 2257.05 3256.93 2254.81 3260.38 2253.68 3264.71 2253.68ZM3230.7 2253.68 3234.3 2253.68 3234.3 2299.39 3228.71 2299.39 3228.71 2263.77C3227.36 2265.06 3225.6 2266.34 3223.41 2267.62 3221.23 2268.91 3219.27 2269.87 3217.53 2270.51L3217.53 2265.11C3220.66 2263.64 3223.39 2261.86 3225.73 2259.77 3228.07 2257.68 3229.72 2255.65 3230.7 2253.68Z" stroke="#FFFFFF" stroke-width="13.6275" stroke-miterlimit="2" fill="none" fill-rule="evenodd"/><text fill="#000000" fill-opacity="0" font-family="Arial,Arial_MSFontService,sans-serif" font-size="46.4854" x="3217.53" y="2294.36">120</text><text font-family="Arial,Arial_MSFontService,sans-serif" font-weight="400" font-size="14" transform="matrix(4.5425 0 0 4.5425 3210.61 2299)">120</text><path d="M1539.18 1442.9 1561.82 1442.9 1561.82 1448.24 1543.66 1448.24 1541.2 1460.47C1543.94 1458.57 1546.8 1457.62 1549.8 1457.62 1553.78 1457.62 1557.13 1458.99 1559.86 1461.74 1562.6 1464.5 1563.96 1468.04 1563.96 1472.36 1563.96 1476.48 1562.76 1480.05 1560.36 1483.05 1557.44 1486.73 1553.46 1488.57 1548.41 1488.57 1544.27 1488.57 1540.89 1487.41 1538.27 1485.1 1535.65 1482.78 1534.15 1479.7 1533.78 1475.87L1539.65 1475.38C1540.08 1478.23 1541.09 1480.38 1542.68 1481.82 1544.26 1483.26 1546.17 1483.98 1548.41 1483.98 1551.1 1483.98 1553.38 1482.96 1555.24 1480.94 1557.1 1478.91 1558.03 1476.22 1558.03 1472.86 1558.03 1469.67 1557.14 1467.16 1555.35 1465.32 1553.56 1463.47 1551.21 1462.55 1548.31 1462.55 1546.51 1462.55 1544.89 1462.96 1543.44 1463.78 1541.99 1464.6 1540.85 1465.66 1540.02 1466.96L1534.77 1466.28Z" stroke="#FFFFFF" stroke-width="13.6275" stroke-miterlimit="2" fill="none" fill-rule="evenodd"/><text fill="#000000" fill-opacity="0" font-family="Arial,Arial_MSFontService,sans-serif" font-size="45.6777" x="1533.78" y="1482.86">5</text><text fill="#969696" font-family="Arial,Arial_MSFontService,sans-serif" font-weight="400" font-size="14" transform="matrix(4.5425 0 0 4.5425 1531.14 1488)">5</text><path d="M1584.42 689.632C1581.85 689.632 1579.8 690.719 1578.27 692.893 1576.34 695.667 1575.38 700.791 1575.38 708.264 1575.38 715.737 1576.25 720.711 1578 723.184 1579.75 725.658 1581.91 726.895 1584.48 726.895 1587.05 726.895 1589.2 725.653 1590.95 723.169 1592.7 720.685 1593.58 715.716 1593.58 708.264 1593.58 700.77 1592.7 695.791 1590.95 693.328 1589.2 690.864 1587.02 689.632 1584.42 689.632ZM1584.48 685.006C1586.92 685.006 1589.06 685.497 1590.91 686.481 1592.75 687.464 1594.27 688.882 1595.47 690.735 1596.67 692.588 1597.61 694.844 1598.3 697.504 1598.98 700.164 1599.32 703.751 1599.32 708.264 1599.32 713.605 1598.77 717.916 1597.68 721.197 1596.58 724.478 1594.94 727.014 1592.75 728.805 1590.57 730.596 1587.81 731.491 1584.48 731.491 1580.09 731.491 1576.64 729.918 1574.14 726.771 1571.14 722.983 1569.64 716.813 1569.64 708.264 1569.64 702.881 1570.19 698.55 1571.3 695.268 1572.4 691.987 1574.05 689.456 1576.23 687.676 1578.42 685.896 1581.17 685.006 1584.48 685.006ZM1550.75 685.006 1554.35 685.006 1554.35 730.715 1548.76 730.715 1548.76 695.098C1547.41 696.381 1545.65 697.665 1543.47 698.948 1541.28 700.232 1539.32 701.194 1537.58 701.836L1537.58 696.433C1540.71 694.963 1543.44 693.183 1545.78 691.092 1548.12 689.001 1549.77 686.972 1550.75 685.006Z" stroke="#FFFFFF" stroke-width="13.6275" stroke-miterlimit="2" fill="none" fill-rule="evenodd"/><text fill="#000000" fill-opacity="0" font-family="Arial,Arial_MSFontService,sans-serif" font-size="46.4852" x="1537.58" y="725.68">10</text><text fill="#969696" font-family="Arial,Arial_MSFontService,sans-serif" font-weight="400" font-size="14" transform="matrix(4.5425 0 0 4.5425 1530.66 731)">10</text><path d="M3068.68 2342.16C3065.67 2342.16 3063.1 2343.38 3060.99 2345.83 3058.88 2348.28 3057.82 2351.92 3057.82 2356.75 3057.82 2362 3058.87 2365.83 3060.95 2368.25 3063.04 2370.66 3065.65 2371.87 3068.8 2371.87 3071.91 2371.87 3074.53 2370.67 3076.64 2368.27 3078.75 2365.87 3079.81 2362.1 3079.81 2356.97 3079.81 2352.07 3078.72 2348.38 3076.54 2345.89 3074.37 2343.4 3071.75 2342.16 3068.68 2342.16ZM3010.91 2342.12C3007.8 2342.12 3005.17 2343.16 3003.05 2345.25 3000.93 2347.33 2999.75 2350.12 2999.52 2353.62L3021.88 2353.62C3021.58 2350.25 3020.73 2347.72 3019.32 2346.04 3017.16 2343.42 3014.36 2342.12 3010.91 2342.12ZM3035.32 2337.44 3042.1 2337.44 3042.1 2377.49 3035.32 2377.49ZM3068.19 2336.54C3072.92 2336.54 3076.81 2338.45 3079.88 2342.27L3079.88 2337.44 3086.14 2337.44 3086.14 2372.06C3086.14 2378.29 3085.51 2382.71 3084.24 2385.31 3082.97 2387.91 3080.96 2389.97 3078.2 2391.47 3075.45 2392.98 3072.06 2393.74 3068.04 2393.74 3063.27 2393.74 3059.41 2392.66 3056.47 2390.51 3053.52 2388.36 3052.1 2385.13 3052.21 2380.8L3058.8 2381.78C3059.08 2383.82 3059.85 2385.3 3061.1 2386.23 3062.79 2387.49 3065.09 2388.12 3068 2388.12 3071.15 2388.12 3073.57 2387.49 3075.28 2386.23 3076.99 2384.98 3078.15 2383.22 3078.75 2380.95 3079.1 2379.57 3079.27 2376.67 3079.24 2372.24 3076.27 2375.74 3072.58 2377.49 3068.15 2377.49 3062.65 2377.49 3058.39 2375.5 3055.37 2371.53 3052.36 2367.56 3050.85 2362.79 3050.85 2357.24 3050.85 2353.42 3051.54 2349.89 3052.92 2346.66 3054.3 2343.43 3056.31 2340.94 3058.94 2339.18 3061.56 2337.42 3064.65 2336.54 3068.19 2336.54ZM3010.84 2336.54C3016.19 2336.54 3020.56 2338.36 3023.96 2342 3027.35 2345.65 3029.05 2350.78 3029.05 2357.39 3029.05 2357.79 3029.04 2358.39 3029.01 2359.2L2999.15 2359.2C2999.4 2363.6 3000.64 2366.97 3002.88 2369.3 3005.12 2371.64 3007.91 2372.81 3011.25 2372.81 3013.74 2372.81 3015.86 2372.16 3017.62 2370.85 3019.38 2369.54 3020.78 2367.46 3021.81 2364.59L3028.82 2365.46C3027.72 2369.55 3025.67 2372.73 3022.68 2375 3019.69 2377.26 3015.86 2378.39 3011.21 2378.39 3005.36 2378.39 3000.71 2376.59 2997.28 2372.98 2993.85 2369.37 2992.13 2364.31 2992.13 2357.8 2992.13 2351.07 2993.87 2345.84 2997.34 2342.12 3000.81 2338.4 3005.31 2336.54 3010.84 2336.54ZM3143.21 2323.45 3143.21 2337.44 3150.03 2337.44 3150.03 2342.72 3143.21 2342.72 3143.21 2366.14C3143.21 2368.07 3143.33 2369.32 3143.57 2369.87 3143.81 2370.42 3144.19 2370.86 3144.74 2371.19 3145.28 2371.52 3146.05 2371.68 3147.05 2371.68 3147.81 2371.68 3148.8 2371.59 3150.03 2371.42L3151.01 2377.41C3149.1 2377.81 3147.39 2378.01 3145.89 2378.01 3143.42 2378.01 3141.51 2377.62 3140.15 2376.84 3138.8 2376.07 3137.84 2375.04 3137.29 2373.77 3136.74 2372.5 3136.46 2369.83 3136.46 2365.76L3136.46 2342.72 3131.48 2342.72 3131.48 2337.44 3136.46 2337.44 3136.46 2327.52ZM3094.33 2322.21 3101.12 2322.21 3101.12 2342.04C3104.29 2338.37 3108.28 2336.54 3113.11 2336.54 3116.08 2336.54 3118.65 2337.12 3120.84 2338.29 3123.03 2339.46 3124.59 2341.07 3125.53 2343.14 3126.48 2345.2 3126.95 2348.19 3126.95 2352.11L3126.95 2377.49 3120.16 2377.49 3120.16 2352.11C3120.16 2348.72 3119.43 2346.25 3117.95 2344.7 3116.48 2343.15 3114.4 2342.38 3111.71 2342.38 3109.7 2342.38 3107.81 2342.9 3106.04 2343.95 3104.27 2344.99 3103 2346.4 3102.25 2348.19 3101.5 2349.97 3101.12 2352.44 3101.12 2355.58L3101.12 2377.49 3094.33 2377.49ZM3035.32 2322.21 3042.1 2322.21 3042.1 2330.01 3035.32 2330.01ZM2913.03 2322.21 2920.53 2322.21 2928.94 2358.44C2929.84 2362.24 2930.62 2366.01 2931.28 2369.76 2932.68 2363.85 2933.51 2360.44 2933.77 2359.54L2944.29 2322.21 2953.11 2322.21 2961.03 2350.19C2963.01 2357.12 2964.45 2363.65 2965.33 2369.76 2966.03 2366.26 2966.95 2362.25 2968.08 2357.73L2976.75 2322.21 2984.1 2322.21 2968.95 2377.49 2961.89 2377.49 2950.24 2335.37C2949.26 2331.85 2948.68 2329.69 2948.51 2328.88 2947.93 2331.42 2947.39 2333.58 2946.89 2335.37L2935.16 2377.49 2927.69 2377.49Z" stroke="#FFFFFF" stroke-width="13.6275" stroke-miterlimit="2" fill="none" fill-rule="evenodd"/><text fill="#000000" fill-opacity="0" font-family="Arial,Arial_MSFontService,sans-serif" font-size="71.5288" x="2913.03" y="2384.8">Weight </text><path d="M3189.07 2321.27 3193.93 2321.27C3190.89 2326.49 3188.88 2330.23 3187.9 2332.46 3186.37 2335.93 3185.16 2339.55 3184.28 2343.32 3183.2 2348.02 3182.66 2352.75 3182.66 2357.5 3182.66 2369.59 3186.42 2381.67 3193.93 2393.74L3189.07 2393.74C3185.32 2389.01 3182.16 2383.48 3179.57 2377.15 3176.98 2370.81 3175.68 2364.25 3175.68 2357.46 3175.68 2351.48 3176.65 2345.75 3178.59 2340.27 3180.85 2333.91 3184.34 2327.58 3189.07 2321.27Z" stroke="#FFFFFF" stroke-width="13.6275" stroke-miterlimit="2" fill="none" fill-rule="evenodd"/><text fill="#000000" fill-opacity="0" font-family="Arial,Arial_MSFontService,sans-serif" font-size="72.4717" x="3175.68" y="2384.68">(</text><path d="M3218.59 2342.16C3215.57 2342.16 3213 2343.38 3210.89 2345.83 3208.78 2348.28 3207.73 2351.92 3207.73 2356.75 3207.73 2362 3208.77 2365.83 3210.86 2368.25 3212.94 2370.66 3215.56 2371.87 3218.7 2371.87 3221.82 2371.87 3224.43 2370.67 3226.54 2368.27 3228.65 2365.87 3229.71 2362.1 3229.71 2356.97 3229.71 2352.07 3228.62 2348.38 3226.45 2345.89 3224.27 2343.4 3221.65 2342.16 3218.59 2342.16ZM3218.09 2336.54C3222.82 2336.54 3226.72 2338.45 3229.78 2342.27L3229.78 2337.44 3236.04 2337.44 3236.04 2372.06C3236.04 2378.29 3235.41 2382.71 3234.14 2385.31 3232.87 2387.91 3230.86 2389.97 3228.11 2391.47 3225.35 2392.98 3221.97 2393.74 3217.94 2393.74 3213.17 2393.74 3209.31 2392.66 3206.37 2390.51 3203.43 2388.36 3202.01 2385.13 3202.11 2380.8L3208.71 2381.78C3208.98 2383.82 3209.75 2385.3 3211.01 2386.23 3212.69 2387.49 3214.99 2388.12 3217.91 2388.12 3221.05 2388.12 3223.47 2387.49 3225.18 2386.23 3226.89 2384.98 3228.05 2383.22 3228.65 2380.95 3229 2379.57 3229.17 2376.67 3229.14 2372.24 3226.18 2375.74 3222.48 2377.49 3218.06 2377.49 3212.55 2377.49 3208.29 2375.5 3205.27 2371.53 3202.26 2367.56 3200.75 2362.79 3200.75 2357.24 3200.75 2353.42 3201.44 2349.89 3202.82 2346.66 3204.21 2343.43 3206.21 2340.94 3208.84 2339.18 3211.46 2337.42 3214.55 2336.54 3218.09 2336.54Z" stroke="#FFFFFF" stroke-width="13.6275" stroke-miterlimit="2" fill="none" fill-rule="evenodd"/><text fill="#000000" fill-opacity="0" font-family="Arial,Arial_MSFontService,sans-serif" font-size="57.2004" x="3200.75" y="2386.59">g</text><path d="M3243.82 2321.27 3248.68 2321.27C3253.41 2327.58 3256.9 2333.91 3259.17 2340.27 3261.1 2345.75 3262.07 2351.48 3262.07 2357.46 3262.07 2364.25 3260.77 2370.81 3258.17 2377.15 3255.57 2383.48 3252.4 2389.01 3248.68 2393.74L3243.82 2393.74C3251.34 2381.67 3255.09 2369.59 3255.09 2357.5 3255.09 2352.78 3254.55 2348.09 3253.47 2343.44 3252.62 2339.67 3251.42 2336.05 3249.89 2332.58 3248.91 2330.32 3246.89 2326.54 3243.82 2321.27Z" stroke="#FFFFFF" stroke-width="13.6275" stroke-miterlimit="2" fill="none" fill-rule="evenodd"/><text fill="#000000" fill-opacity="0" font-family="Arial,Arial_MSFontService,sans-serif" font-size="72.4717" x="3243.82" y="2384.68">)</text><text font-family="Arial,Arial_MSFontService,sans-serif" font-weight="400" font-size="17" transform="matrix(4.5425 0 0 4.5425 2912.08 2377)">Weight <tspan font-size="17" x="57" y="0">(</tspan><tspan font-size="17" x="63" y="0">g</tspan><tspan font-size="17" x="72" y="0">)</tspan></text><path d="M1630.63 730.017C1630.63 733.411 1631.9 736.226 1634.44 738.463 1636.98 740.701 1640.81 741.819 1645.94 741.819 1651.07 741.819 1654.91 740.701 1657.46 738.463 1660.01 736.226 1661.28 733.411 1661.28 730.017 1661.28 726.649 1660 723.846 1657.44 721.609 1654.87 719.371 1650.96 718.253 1645.71 718.253 1640.76 718.253 1637.01 719.378 1634.46 721.627 1631.9 723.877 1630.63 726.674 1630.63 730.017ZM1630.59 661.616C1630.59 664.733 1631.63 667.353 1633.72 669.477 1635.81 671.602 1638.6 672.777 1642.09 673.003L1642.09 650.643C1638.72 650.945 1636.2 651.799 1634.51 653.207 1631.9 655.369 1630.59 658.172 1630.59 661.616ZM1625.92 937.016 1625.92 930.229 1665.96 930.229 1665.96 937.016ZM1625.92 968.813 1625.92 962.026 1665.96 962.026 1665.96 968.813ZM1625.01 661.691C1625.01 656.337 1626.83 651.963 1630.48 648.569 1634.12 645.176 1639.25 643.479 1645.86 643.479 1646.26 643.479 1646.87 643.491 1647.67 643.517L1647.67 673.38C1652.07 673.129 1655.44 671.884 1657.78 669.647 1660.11 667.41 1661.28 664.62 1661.28 661.276 1661.28 658.788 1660.63 656.664 1659.32 654.904 1658.02 653.144 1655.93 651.749 1653.06 650.719L1653.93 643.705C1658.03 644.811 1661.21 646.86 1663.47 649.851 1665.73 652.843 1666.86 656.664 1666.86 661.314 1666.86 667.171 1665.06 671.815 1661.45 675.246 1657.85 678.678 1652.79 680.393 1646.28 680.393 1639.54 680.393 1634.31 678.659 1630.59 675.19 1626.87 671.721 1625.01 667.221 1625.01 661.691ZM1625.01 690.681C1625.01 688.393 1625.74 686.068 1627.2 683.705L1633.49 686.043C1632.51 687.702 1632.02 689.361 1632.02 691.02 1632.02 692.503 1632.47 693.835 1633.36 695.017 1634.25 696.198 1635.49 697.04 1637.08 697.543 1639.49 698.297 1642.13 698.674 1644.99 698.674L1665.96 698.674 1665.96 705.461 1625.92 705.461 1625.92 699.353 1631.99 699.353C1629.15 697.794 1627.27 696.355 1626.37 695.036 1625.46 693.716 1625.01 692.264 1625.01 690.681ZM1625.01 730.017C1625.01 724.512 1626.81 720.012 1630.42 716.518 1634.03 713.024 1639.01 711.277 1645.37 711.277 1650.53 711.277 1654.58 712.05 1657.53 713.596 1660.49 715.142 1662.78 717.392 1664.41 720.345 1666.05 723.299 1666.86 726.523 1666.86 730.017 1666.86 735.623 1665.07 740.154 1661.47 743.61 1657.88 747.067 1652.7 748.795 1645.94 748.795 1638.52 748.795 1633.03 746.734 1629.46 742.611 1626.49 739.167 1625.01 734.969 1625.01 730.017ZM1625.01 770.975C1625.01 766.626 1626.11 763.069 1628.31 760.304 1630.51 757.539 1633.63 755.767 1637.68 754.988L1638.7 761.586C1636.01 762.215 1633.98 763.327 1632.63 764.923 1631.27 766.519 1630.59 768.449 1630.59 770.711 1630.59 774.13 1631.82 776.907 1634.27 779.044 1636.72 781.181 1640.6 782.249 1645.9 782.249 1651.28 782.249 1655.19 781.219 1657.63 779.157 1660.06 777.096 1661.28 774.406 1661.28 771.088 1661.28 768.424 1660.47 766.199 1658.83 764.414 1657.2 762.629 1654.69 761.498 1651.29 761.021L1652.16 754.347C1656.76 755.076 1660.36 756.942 1662.96 759.946 1665.56 762.95 1666.86 766.639 1666.86 771.013 1666.86 776.493 1665.07 780.898 1661.49 784.229 1657.91 787.56 1652.77 789.225 1646.09 789.225 1641.76 789.225 1637.98 788.508 1634.74 787.076 1631.5 785.643 1629.06 783.462 1627.44 780.534 1625.82 777.605 1625.01 774.419 1625.01 770.975ZM1611.93 910.89 1625.92 910.89 1625.92 904.56 1625.92 904.065 1625.92 897.245 1649.1 888.911C1652.05 887.831 1655.14 886.863 1658.38 886.008 1655.26 885.229 1652.22 884.299 1649.26 883.218L1625.92 874.658 1625.92 867.871 1666.64 883.105C1671.04 884.739 1674.07 886.008 1675.73 886.913 1677.96 888.12 1679.6 889.502 1680.65 891.061 1681.69 892.619 1682.21 894.479 1682.21 896.641 1682.21 897.948 1681.93 899.406 1681.38 901.015L1675.01 901.769C1675.41 900.286 1675.61 898.992 1675.61 897.885 1675.61 896.377 1675.36 895.171 1674.86 894.266 1674.36 893.361 1673.65 892.619 1672.75 892.041 1672.07 891.614 1670.38 890.922 1667.69 889.967 1667.32 889.842 1666.76 889.64 1666.03 889.364L1627.22 904.065 1631.19 904.065 1631.19 910.89 1654.61 910.89C1656.55 910.89 1657.79 910.77 1658.34 910.532 1658.9 910.293 1659.34 909.903 1659.66 909.363 1659.99 908.822 1660.15 908.049 1660.15 907.044 1660.15 906.29 1660.06 905.297 1659.89 904.065L1665.88 903.085C1666.29 904.995 1666.49 906.704 1666.49 908.213 1666.49 910.676 1666.1 912.587 1665.32 913.944 1664.54 915.301 1663.51 916.257 1662.25 916.81 1660.98 917.363 1658.31 917.639 1654.23 917.639L1631.19 917.639 1631.19 922.616 1625.92 922.616 1625.92 917.639 1616 917.639ZM1611.93 979.027 1625.92 979.027 1625.92 972.202 1631.19 972.202 1631.19 979.027 1654.61 979.027C1656.55 979.027 1657.79 978.908 1658.34 978.669 1658.9 978.43 1659.34 978.041 1659.66 977.5 1659.99 976.96 1660.15 976.187 1660.15 975.181 1660.15 974.427 1660.06 973.434 1659.89 972.202L1665.88 971.222C1666.29 973.133 1666.49 974.842 1666.49 976.35 1666.49 978.814 1666.1 980.724 1665.32 982.081 1664.54 983.439 1663.51 984.394 1662.25 984.947 1660.98 985.5 1658.31 985.777 1654.23 985.777L1631.19 985.777 1631.19 990.754 1625.92 990.754 1625.92 985.777 1616 985.777ZM1610.68 937.016 1610.68 930.229 1618.49 930.229 1618.49 937.016ZM1610.68 950.832 1610.68 944.045 1665.96 944.045 1665.96 950.832ZM1610.68 968.813 1610.68 962.026 1618.49 962.026 1618.49 968.813ZM1610.68 1036.01 1610.68 1028.69 1642.58 1028.69C1647.38 1028.69 1650.92 1028.25 1653.2 1027.35 1655.47 1026.46 1657.22 1024.93 1658.46 1022.75 1659.69 1020.58 1660.3 1017.92 1660.3 1014.78 1660.3 1009.4 1659.08 1005.57 1656.65 1003.28 1654.21 1000.99 1649.52 999.848 1642.58 999.848L1610.68 999.848 1610.68 992.533 1642.62 992.533C1648.17 992.533 1652.59 993.161 1655.85 994.418 1659.12 995.675 1661.78 997.944 1663.83 1001.22 1665.88 1004.5 1666.9 1008.81 1666.9 1014.14 1666.9 1019.32 1666.01 1023.55 1664.22 1026.85 1662.44 1030.14 1659.86 1032.49 1656.48 1033.9 1653.1 1035.3 1648.48 1036.01 1642.62 1036.01ZM1609.74 817.172C1609.74 813.074 1610.4 809.461 1611.72 806.331 1613.04 803.202 1614.98 800.795 1617.54 799.111 1620.11 797.426 1623.01 796.521 1626.25 796.396L1626.78 803.409C1623.29 803.786 1620.65 805.062 1618.86 807.236 1617.08 809.411 1616.19 812.622 1616.19 816.87 1616.19 821.294 1617 824.518 1618.62 826.542 1620.24 828.565 1622.2 829.577 1624.48 829.577 1626.47 829.577 1628.1 828.861 1629.38 827.428 1630.67 826.02 1631.98 822.344 1633.32 816.399 1634.67 810.454 1635.84 806.375 1636.85 804.163 1638.33 800.946 1640.21 798.57 1642.49 797.037 1644.76 795.503 1647.38 794.737 1650.35 794.737 1653.29 794.737 1656.06 795.579 1658.66 797.263 1661.27 798.947 1663.29 801.367 1664.73 804.521 1666.18 807.676 1666.9 811.227 1666.9 815.173 1666.9 820.176 1666.17 824.367 1664.72 827.748 1663.26 831.13 1661.06 833.781 1658.14 835.705 1655.21 837.628 1651.9 838.639 1648.2 838.74L1647.6 831.84C1650.36 831.513 1652.63 830.752 1654.4 829.558 1656.17 828.364 1657.61 826.51 1658.7 823.997 1659.79 821.483 1660.34 818.655 1660.34 815.513 1660.34 812.723 1659.93 810.259 1659.1 808.122 1658.27 805.986 1657.13 804.396 1655.68 803.353 1654.24 802.309 1652.66 801.788 1650.95 801.788 1649.22 801.788 1647.7 802.29 1646.41 803.296 1645.11 804.301 1644.03 805.961 1643.15 808.273 1642.57 809.756 1641.67 813.037 1640.45 818.115 1639.23 823.192 1638.08 826.749 1637 828.785 1635.62 831.425 1633.9 833.392 1631.85 834.686 1629.81 835.981 1627.51 836.628 1624.97 836.628 1622.18 836.628 1619.57 835.836 1617.15 834.253 1614.72 832.669 1612.88 830.357 1611.62 827.315 1610.37 824.273 1609.74 820.892 1609.74 817.172Z" stroke="#FFFFFF" stroke-width="13.6275" stroke-miterlimit="2" fill="none" fill-rule="evenodd"/><text fill="#000000" fill-opacity="0" font-family="Arial,Arial_MSFontService,sans-serif" font-size="392.529" x="1609.74" y="986.942">Utility Score</text><text font-family="Arial,Arial_MSFontService,sans-serif" font-weight="400" font-size="17" transform="matrix(2.78148e-16 -4.5425 4.5425 2.78148e-16 1665.96 1042)">Utility Score</text><path d="M1657.77 2379 1657.77 2379 1657.77 562" stroke="#C74440" stroke-width="11.3562" stroke-linecap="round" stroke-linejoin="round" stroke-miterlimit="10" stroke-opacity="0.9" fill="none"/><path d="M3265.12 2379 3265.12 2379 3265.12 562" stroke="#2D70B3" stroke-width="11.3562" stroke-linecap="round" stroke-linejoin="round" stroke-miterlimit="10" stroke-opacity="0.9" fill="none"/><path d="M1518 659.207 1518 659.207 1570.79 686.178 1628.9 714.663 1694.11 745.416 1769.52 779.763 1864.01 821.551 2200.26 969.169 2273.01 1002.95 2336 1033.36 2392.34 1061.73 2443.36 1088.58 2490.38 1114.49 2533.85 1139.6 2574.66 1164.35 2612.81 1188.67 2648.75 1212.75 2682.46 1236.52 2714.4 1260.23 2744.56 1283.8 2772.95 1307.15 2800.01 1330.59 2825.74 1354.06 2850.14 1377.49 2873.65 1401.26 2895.83 1424.86 2917.13 1448.72 2937.53 1472.77 2957.05 1496.99 2975.68 1521.3 2993.43 1545.65 3010.28 1569.95 3026.7 1594.8 3042.22 1619.5 3057.3 1644.67 3071.94 1670.33 3085.69 1695.62 3099 1721.27 3111.87 1747.26 3124.29 1773.56 3136.27 1800.13 3147.8 1826.93 3158.89 1853.9 3169.54 1880.98 3180.18 1909.33 3190.39 1937.76 3200.14 1966.21 3209.46 1994.59 3218.78 2024.25 3227.65 2053.78 3236.08 2083.07 3244.5 2113.65 3252.49 2143.9 3260.47 2175.47 3268.02 2206.59 3275.56 2239.06 3282.65 2270.94 3289.75 2304.18 3296.85 2338.88 3303.5 2372.83 3308.93 2401.71" stroke="#000000" stroke-width="9.085" stroke-linecap="round" stroke-linejoin="round" stroke-miterlimit="10" stroke-opacity="0.9" fill="none"/><path d="M1520.27 714.174 1520.27 714.174 3337.27 714.174" stroke="#2D70B3" stroke-width="4.5425" stroke-linecap="round" stroke-linejoin="round" stroke-miterlimit="10" stroke-opacity="0.9" fill="none"/><path d="M1520.27 736.886 1520.27 736.886 3337.27 736.886" stroke="#388C46" stroke-width="4.5425" stroke-linecap="round" stroke-linejoin="round" stroke-miterlimit="10" stroke-opacity="0.9" fill="none"/><path d="M1520.27 773.226 1520.27 773.226 3337.27 773.226" stroke="#FA7E19" stroke-width="4.5425" stroke-linecap="round" stroke-linejoin="round" stroke-miterlimit="10" stroke-opacity="0.9" fill="none"/><path d="M1520.27 1777.12 1520.27 1777.12 3337.27 1777.12" stroke="#6042A6" stroke-width="4.5425" stroke-linecap="round" stroke-linejoin="round" stroke-miterlimit="10" stroke-opacity="0.9" fill="none"/></g></g></g><text fill="#4472C4" font-family="Calibri,Calibri_MSFontService,sans-serif" font-style="italic" font-weight="700" font-size="83" transform="matrix(1 0 0 1 1173.31 206)">Requirement: <tspan font-weight="400" font-size="83" x="485.26" y="0">The Drone shall utilize proximity sensors with a </tspan><tspan font-weight="400" font-size="83" x="0" y="100">unit weight less than 120g (T) 5g (O).</tspan></text><path d="M1898.31 1616.49C1900.96 1616.49 1903.24 1616.7 1905.16 1617.14L1903.58 1624.03 1900.01 1624.03C1899.64 1622.49 1899.14 1621.38 1898.54 1620.7 1897.93 1620.03 1897.03 1619.69 1895.84 1619.69 1894.3 1619.69 1893 1620.11 1891.93 1620.97 1890.86 1621.82 1889.95 1623.08 1889.19 1624.75 1888.44 1626.43 1887.74 1628.69 1887.09 1631.52L1886.07 1635.94 1896.49 1635.94 1895.6 1640.03 1885.14 1640.03 1877.6 1675.37C1876.36 1681.24 1874.46 1685.61 1871.89 1688.48 1869.32 1691.36 1866.09 1692.8 1862.2 1692.8 1861.07 1692.8 1860.18 1692.73 1859.53 1692.6L1860.22 1689.03C1860.49 1689.11 1861.12 1689.15 1862.12 1689.15 1863.34 1689.15 1864.38 1688.84 1865.24 1688.22 1866.11 1687.6 1866.91 1686.52 1867.65 1684.98 1868.4 1683.44 1869.08 1681.3 1869.7 1678.58L1878.41 1640.03 1871.56 1640.03 1872.17 1637.24C1873.98 1637.13 1875.29 1636.98 1876.08 1636.79 1876.88 1636.6 1877.5 1636.32 1877.95 1635.94 1878.39 1635.56 1878.77 1635.07 1879.08 1634.46 1879.39 1633.85 1879.79 1632.74 1880.28 1631.12 1881.71 1626.25 1883.92 1622.6 1886.9 1620.15 1889.89 1617.71 1893.69 1616.49 1898.31 1616.49Z" fill-rule="evenodd"/><text fill="#000000" fill-opacity="0" font-family="Arial,Arial_MSFontService,sans-serif" font-size="76.313" x="1859.53" y="1683.26"></text><path d="M1991.29 1612.57C1999.18 1614.65 2005.24 1619.14 2009.46 1626.05 2013.69 1632.95 2015.81 1641.28 2015.81 1651.03 2015.81 1660.81 2013.7 1669.14 2009.48 1676.02 2005.27 1682.89 1999.2 1687.37 1991.29 1689.45L1990.31 1686.33C1996.56 1684.25 2001.2 1680.14 2004.24 1674.01 2007.28 1667.88 2008.79 1660.08 2008.79 1650.63 2008.79 1641.49 2007.28 1633.91 2004.26 1627.87 2001.23 1621.83 1996.54 1617.77 1990.19 1615.69ZM1939.62 1612.57 1940.71 1615.69C1934.39 1617.77 1929.71 1621.83 1926.67 1627.87 1923.63 1633.91 1922.11 1641.49 1922.11 1650.63 1922.11 1660.08 1923.63 1667.88 1926.67 1674.01 1929.71 1680.14 1934.35 1684.25 1940.59 1686.33L1939.62 1689.45C1931.7 1687.37 1925.63 1682.89 1921.42 1676.02 1917.21 1669.14 1915.1 1660.81 1915.1 1651.03 1915.1 1641.28 1917.21 1632.95 1921.44 1626.05 1925.67 1619.14 1931.73 1614.65 1939.62 1612.57Z" fill-rule="evenodd"/><path d="M1958.05 1635.25C1958.89 1635.25 1959.62 1635.35 1960.26 1635.54 1960.89 1635.72 1961.45 1636.01 1961.94 1636.41 1962.43 1636.8 1962.86 1637.3 1963.24 1637.93 1963.61 1638.55 1963.98 1639.39 1964.33 1640.46 1964.68 1641.53 1965.01 1642.85 1965.32 1644.43 1965.63 1646.01 1965.91 1647.65 1966.15 1649.35L1966.56 1649.35C1969.15 1645.71 1971.12 1643.04 1972.46 1641.35 1973.79 1639.66 1974.92 1638.41 1975.84 1637.58 1976.76 1636.76 1977.64 1636.18 1978.49 1635.84 1979.35 1635.5 1980.47 1635.33 1981.88 1635.33 1983.15 1635.33 1984.19 1635.49 1985 1635.82L1983.38 1643.15 1980.54 1643.15C1980.38 1642.02 1979.91 1641.45 1979.12 1641.45 1978.88 1641.45 1978.62 1641.49 1978.35 1641.57 1978.08 1641.65 1977.75 1641.83 1977.36 1642.1 1976.97 1642.37 1976.39 1642.9 1975.64 1643.68 1974.88 1644.46 1974.03 1645.42 1973.08 1646.56 1972.14 1647.69 1971.17 1648.88 1970.17 1650.12L1967.41 1653.57C1967.9 1656.16 1968.36 1658.41 1968.79 1660.3 1969.22 1662.19 1969.61 1663.76 1969.94 1665.02 1970.28 1666.28 1970.58 1667.27 1970.83 1668 1971.09 1668.73 1971.37 1669.27 1971.67 1669.64 1971.96 1670 1972.27 1670.26 1972.58 1670.41 1972.89 1670.56 1973.25 1670.63 1973.65 1670.63 1974.38 1670.63 1975.09 1670.35 1975.78 1669.78 1976.47 1669.21 1977.46 1667.93 1978.76 1665.93L1981.39 1667.67C1979.5 1670.48 1977.79 1672.46 1976.27 1673.61 1974.74 1674.76 1972.92 1675.33 1970.81 1675.33 1969.65 1675.33 1968.67 1675.12 1967.86 1674.7 1967.05 1674.29 1966.34 1673.62 1965.75 1672.7 1965.15 1671.78 1964.63 1670.35 1964.17 1668.4 1963.33 1664.94 1962.82 1662.3 1962.63 1660.46L1962.22 1660.46C1959.36 1664.49 1957.23 1667.38 1955.84 1669.13 1954.45 1670.89 1953.3 1672.19 1952.39 1673.02 1951.49 1673.86 1950.61 1674.45 1949.76 1674.79 1948.91 1675.12 1947.78 1675.29 1946.38 1675.29 1945.11 1675.29 1944.07 1675.13 1943.26 1674.81L1944.88 1667.47 1947.71 1667.47C1947.88 1668.61 1948.35 1669.17 1949.13 1669.17 1949.51 1669.17 1949.91 1669.07 1950.33 1668.87 1950.75 1668.67 1951.35 1668.18 1952.13 1667.41 1952.92 1666.64 1954 1665.43 1955.37 1663.78 1956.75 1662.13 1958.75 1659.66 1961.37 1656.37 1960.97 1654.23 1960.55 1652.18 1960.12 1650.21 1959.68 1648.23 1959.24 1646.4 1958.78 1644.69 1958.32 1642.99 1957.94 1641.88 1957.64 1641.35 1957.35 1640.82 1957.03 1640.46 1956.69 1640.26 1956.35 1640.05 1955.93 1639.95 1955.41 1639.95 1954.85 1639.95 1954.33 1640.08 1953.87 1640.34 1953.41 1640.59 1952.92 1641.04 1952.37 1641.67 1951.83 1642.31 1951.12 1643.3 1950.23 1644.65L1947.59 1642.91C1949.29 1640.34 1950.93 1638.43 1952.5 1637.16 1954.06 1635.89 1955.91 1635.25 1958.05 1635.25Z" fill-rule="evenodd"/><text fill="#000000" fill-opacity="0" font-family="Arial,Arial_MSFontService,sans-serif" font-size="40.0815" x="1943.26" y="1670.32"></text><path d="M2051.85 1656.69 2101.77 1656.69 2101.77 1662.08 2051.85 1662.08ZM2051.85 1639.87 2101.77 1639.87 2101.77 1645.26 2051.85 1645.26Z" fill-rule="evenodd"/><text fill="#000000" fill-opacity="0" font-family="Arial,Arial_MSFontService,sans-serif" font-size="22.209" x="2051.85" y="1659.3">=</text><path d="M2153.74 1618.72C2156.79 1618.72 2159.47 1619.19 2161.76 1620.13 2164.06 1621.08 2165.82 1622.44 2167.03 1624.21 2168.25 1625.98 2168.86 1628.09 2168.86 1630.55 2168.86 1632.85 2168.4 1634.87 2167.48 1636.61 2166.56 1638.35 2165.27 1639.87 2163.61 1641.17 2161.95 1642.47 2159.79 1643.74 2157.14 1644.98L2157.14 1645.34C2158.79 1645.64 2160.38 1646.15 2161.91 1646.86 2163.43 1647.58 2164.79 1648.5 2165.98 1649.64 2167.17 1650.77 2168.12 1652.13 2168.84 1653.71 2169.55 1655.29 2169.91 1657.1 2169.91 1659.12 2169.91 1662.26 2169.23 1665.04 2167.86 1667.47 2166.5 1669.9 2164.41 1671.82 2161.6 1673.23 2158.79 1674.63 2155.37 1675.33 2151.35 1675.33 2149.02 1675.33 2146.52 1675.07 2143.83 1674.54 2141.14 1674.02 2138.68 1673.32 2136.43 1672.46L2136.43 1663.86 2141.3 1663.86C2142.24 1666.67 2143.49 1668.71 2145.05 1669.98 2146.6 1671.25 2148.71 1671.89 2151.39 1671.89 2154.9 1671.89 2157.56 1670.93 2159.35 1669.01 2161.15 1667.09 2162.05 1664.26 2162.05 1660.5 2162.05 1656.56 2160.86 1653.54 2158.48 1651.46 2156.1 1649.38 2152.62 1648.34 2148.03 1648.34L2144.38 1648.34 2144.38 1644.78C2148.03 1644.56 2151.1 1643.86 2153.6 1642.67 2156.1 1641.48 2157.95 1639.95 2159.17 1638.09 2160.39 1636.22 2160.99 1634.13 2160.99 1631.81 2160.99 1628.81 2160.2 1626.5 2158.6 1624.88 2157.01 1623.26 2154.69 1622.44 2151.63 1622.44 2149.09 1622.44 2147.03 1623.13 2145.43 1624.51 2143.84 1625.89 2142.66 1628 2141.91 1630.83L2137.04 1630.83 2137.04 1623.13C2140.18 1621.65 2143.11 1620.54 2145.84 1619.81 2148.57 1619.08 2151.2 1618.72 2153.74 1618.72Z" fill-rule="evenodd"/><text fill="#000000" fill-opacity="0" font-family="Arial,Arial_MSFontService,sans-serif" font-size="56.6167" x="2136.43" y="1668.26">3</text><path d="M2244.85 1656.2C2239.36 1656.26 2235.26 1656.99 2232.53 1658.39 2229.8 1659.8 2228.44 1661.92 2228.44 1664.76 2228.44 1666.3 2228.75 1667.51 2229.37 1668.4 2229.99 1669.29 2230.77 1669.91 2231.72 1670.25 2232.66 1670.58 2233.78 1670.75 2235.08 1670.75 2236.92 1670.75 2238.59 1670.31 2240.09 1669.42 2241.59 1668.52 2242.75 1667.39 2243.59 1666.01 2244.43 1664.63 2244.85 1663.27 2244.85 1661.92ZM2286.19 1635.29C2287.65 1635.29 2288.95 1635.46 2290.1 1635.8 2291.25 1636.14 2292.26 1636.66 2293.14 1637.36 2294.01 1638.06 2294.74 1638.93 2295.3 1639.97 2295.87 1641.01 2296.3 1642.26 2296.58 1643.72 2296.87 1645.18 2297.01 1647.03 2297.01 1649.27L2297.01 1664.55C2297.01 1666.42 2297.06 1667.77 2297.17 1668.61 2297.28 1669.44 2297.47 1670.09 2297.74 1670.55 2298.01 1671.01 2298.4 1671.4 2298.91 1671.71 2299.43 1672.02 2300.32 1672.35 2301.59 1672.7L2301.59 1674.68 2285.62 1674.68 2285.62 1672.7C2286.67 1672.37 2287.43 1672.09 2287.89 1671.85 2288.35 1671.6 2288.73 1671.27 2289.04 1670.83 2289.35 1670.4 2289.6 1669.73 2289.77 1668.83 2289.95 1667.92 2290.04 1666.55 2290.04 1664.71L2290.04 1654.1C2290.04 1652.21 2289.98 1650.49 2289.87 1648.95 2289.77 1647.41 2289.58 1646.15 2289.33 1645.16 2289.07 1644.17 2288.76 1643.4 2288.4 1642.85 2288.03 1642.3 2287.6 1641.82 2287.1 1641.43 2286.6 1641.04 2286.02 1640.73 2285.38 1640.5 2284.73 1640.27 2283.88 1640.16 2282.82 1640.16 2281.77 1640.16 2280.77 1640.36 2279.82 1640.78 2278.88 1641.2 2277.84 1641.92 2276.7 1642.95 2275.57 1643.98 2274.74 1644.99 2274.23 1645.99 2273.72 1646.99 2273.46 1648.14 2273.46 1649.44L2273.46 1664.55C2273.46 1666.88 2273.57 1668.49 2273.78 1669.4 2274 1670.3 2274.41 1670.99 2275.02 1671.46 2275.63 1671.94 2276.62 1672.35 2278 1672.7L2278 1674.68 2262.11 1674.68 2262.11 1672.7C2263.17 1672.37 2263.92 1672.09 2264.36 1671.85 2264.81 1671.6 2265.19 1671.27 2265.5 1670.83 2265.81 1670.4 2266.05 1669.74 2266.23 1668.85 2266.4 1667.96 2266.49 1666.57 2266.49 1664.67L2266.49 1647C2266.49 1645.28 2266.46 1643.88 2266.41 1642.83 2266.35 1641.78 2266.17 1640.93 2265.84 1640.3 2265.52 1639.66 2265.02 1639.19 2264.36 1638.88 2263.7 1638.57 2262.76 1638.3 2261.55 1638.09L2261.55 1635.94 2271.03 1635.58 2273.5 1635.58 2273.06 1642.18 2273.62 1642.34C2275.62 1640.32 2277.24 1638.87 2278.47 1638.01 2279.7 1637.14 2280.94 1636.47 2282.19 1636 2283.45 1635.53 2284.78 1635.29 2286.19 1635.29ZM2240.47 1635.25C2243.15 1635.25 2245.29 1635.68 2246.92 1636.53 2248.54 1637.38 2249.75 1638.68 2250.56 1640.44 2251.37 1642.2 2251.78 1644.84 2251.78 1648.38L2251.78 1662.49C2251.78 1664.49 2251.79 1665.9 2251.82 1666.72 2251.85 1667.54 2251.93 1668.31 2252.06 1669.01 2252.2 1669.71 2252.4 1670.27 2252.67 1670.69 2252.94 1671.11 2253.34 1671.47 2253.87 1671.77 2254.39 1672.06 2255.25 1672.37 2256.44 1672.7L2256.44 1674.68 2245.34 1674.68 2245.54 1668.89 2244.93 1668.73C2242.58 1671.13 2240.37 1672.83 2238.3 1673.83 2236.24 1674.83 2234.04 1675.33 2231.72 1675.33 2229.66 1675.33 2227.85 1674.93 2226.29 1674.14 2224.72 1673.34 2223.52 1672.22 2222.68 1670.77 2221.84 1669.33 2221.42 1667.66 2221.42 1665.77 2221.42 1661.82 2223.38 1658.78 2227.28 1656.63 2231.18 1654.48 2237.04 1653.23 2244.85 1652.88L2244.85 1650.25C2244.85 1647.44 2244.58 1645.22 2244.04 1643.6 2243.5 1641.98 2242.65 1640.79 2241.49 1640.03 2240.32 1639.28 2238.77 1638.9 2236.82 1638.9 2234.72 1638.9 2233.02 1639.45 2231.74 1640.56 2230.45 1641.67 2229.49 1643.33 2228.84 1645.55L2223.53 1645.55 2223.53 1640.28C2226.13 1638.93 2228.29 1637.93 2230.02 1637.3 2231.75 1636.66 2233.47 1636.16 2235.2 1635.8 2236.93 1635.43 2238.69 1635.25 2240.47 1635.25ZM2198.9 1625.93 2204.65 1625.93 2204.65 1635.94 2217.74 1635.94 2217.74 1640.03 2204.65 1640.03 2204.65 1658.07C2204.65 1660.69 2204.76 1662.78 2204.97 1664.33 2205.19 1665.88 2205.6 1667.1 2206.19 1667.98 2206.78 1668.86 2207.46 1669.48 2208.22 1669.86 2208.97 1670.24 2209.95 1670.43 2211.13 1670.43 2212.22 1670.43 2213.23 1670.21 2214.17 1669.76 2215.12 1669.31 2216.05 1668.67 2216.97 1667.84L2218.79 1670.02C2216.88 1671.89 2215.06 1673.24 2213.34 1674.08 2211.63 1674.91 2209.85 1675.33 2208.01 1675.33 2204.53 1675.33 2201.93 1674.3 2200.23 1672.23 2198.53 1670.17 2197.68 1666.93 2197.68 1662.53L2197.68 1640.03 2191.68 1640.03 2191.68 1637.97C2193.03 1637.75 2194.13 1637.37 2194.96 1636.83 2195.8 1636.29 2196.46 1635.6 2196.93 1634.74 2197.4 1633.89 2197.77 1632.83 2198.04 1631.54 2198.31 1630.26 2198.6 1628.39 2198.9 1625.93Z" fill-rule="evenodd"/><text fill="#000000" fill-opacity="0" font-family="Arial,Arial_MSFontService,sans-serif" font-size="49.4028" x="2191.68" y="1669.16">tan</text><path d="M2804.89 1545.19C2816 1554.7 2824.81 1568.88 2831.34 1587.74 2837.86 1606.6 2841.13 1627.65 2841.13 1650.88 2841.13 1673.77 2837.86 1694.78 2831.34 1713.92 2824.81 1733.07 2816 1747.36 2804.89 1756.82L2802.99 1753.82C2812.58 1744.07 2819.97 1729.95 2825.16 1711.47 2830.35 1692.99 2832.94 1672.81 2832.94 1650.92 2832.94 1628.53 2830.33 1608.25 2825.12 1590.09 2819.9 1571.94 2812.53 1557.98 2802.99 1548.23ZM2360.98 1545.19 2362.89 1548.23C2353.32 1557.98 2345.94 1571.94 2340.74 1590.09 2335.54 1608.25 2332.94 1628.53 2332.94 1650.92 2332.94 1672.81 2335.53 1692.99 2340.72 1711.47 2345.91 1729.95 2353.3 1744.07 2362.89 1753.82L2360.98 1756.82C2349.88 1747.36 2341.06 1733.07 2334.54 1713.92 2328.01 1694.78 2324.75 1673.77 2324.75 1650.88 2324.75 1627.65 2328.01 1606.6 2334.54 1587.74 2341.06 1568.88 2349.88 1554.7 2360.98 1545.19Z" fill-rule="evenodd"/><path d="M2371.3 1648.26 2421.23 1648.26 2421.23 1653.65 2371.3 1653.65Z" fill-rule="evenodd"/><text fill="#000000" fill-opacity="0" font-family="Arial,Arial_MSFontService,sans-serif" font-size="5.39014" x="2371.3" y="1652.98"></text><path d="M2489.99 1556.27 2492.22 1556.27C2492.05 1558.86 2491.97 1562.46 2491.97 1567.05L2491.97 1601.66C2491.97 1603.23 2492.06 1604.41 2492.24 1605.2 2492.41 1606 2492.72 1606.65 2493.17 1607.15 2493.61 1607.65 2494.26 1608.04 2495.09 1608.33 2495.93 1608.61 2496.99 1608.83 2498.26 1608.97 2499.52 1609.12 2501.2 1609.22 2503.28 1609.28L2503.28 1612.24 2473.33 1612.24 2473.33 1609.28C2476.33 1609.14 2478.47 1608.96 2479.75 1608.73 2481.04 1608.5 2482.02 1608.16 2482.69 1607.7 2483.37 1607.24 2483.86 1606.59 2484.17 1605.75 2484.48 1604.91 2484.64 1603.55 2484.64 1601.66L2484.64 1568.79C2484.64 1567.71 2484.45 1566.92 2484.07 1566.42 2483.69 1565.92 2483.14 1565.67 2482.41 1565.67 2481.54 1565.67 2480.31 1566.12 2478.72 1567.01 2477.13 1567.9 2475.15 1569.13 2472.8 1570.7L2471.02 1567.58Z" fill-rule="evenodd"/><text fill="#000000" fill-opacity="0" font-family="Arial,Arial_MSFontService,sans-serif" font-size="55.9683" x="2471.02" y="1605.24">1</text><path d="M2447.7 1674.55 2482.47 1674.55 2482.47 1676.49 2458.88 1730.15 2453.01 1730.15 2453.01 1728.17 2474.85 1681.92 2474.85 1681.32 2457.02 1681.32C2455.91 1681.32 2455.03 1681.42 2454.37 1681.62 2453.7 1681.82 2453.15 1682.11 2452.7 1682.49 2452.26 1682.87 2451.89 1683.37 2451.59 1683.99 2451.29 1684.61 2450.89 1685.84 2450.37 1687.68L2446.89 1687.68ZM2521.54 1671.87 2524.7 1671.87 2524.09 1681.28 2500.79 1681.28 2500.79 1699.07C2502.2 1698.47 2503.72 1698.03 2505.37 1697.73 2507.02 1697.43 2508.67 1697.28 2510.31 1697.28 2513.53 1697.28 2516.38 1697.94 2518.87 1699.25 2521.35 1700.56 2523.27 1702.42 2524.62 1704.84 2525.97 1707.26 2526.65 1710.06 2526.65 1713.25 2526.65 1716.87 2525.89 1719.98 2524.38 1722.57 2522.86 1725.17 2520.68 1727.14 2517.81 1728.49 2514.95 1729.84 2511.56 1730.52 2507.64 1730.52 2502.97 1730.52 2498.08 1729.56 2492.97 1727.64L2492.97 1719.05 2497.87 1719.05C2498.68 1721.8 2499.91 1723.83 2501.54 1725.13 2503.18 1726.42 2505.29 1727.07 2507.88 1727.07 2511.48 1727.07 2514.19 1725.99 2516.03 1723.83 2517.87 1721.67 2518.79 1718.44 2518.79 1714.14 2518.79 1711.28 2518.3 1708.91 2517.33 1707.03 2516.35 1705.15 2515.04 1703.8 2513.4 1702.96 2511.75 1702.12 2509.83 1701.7 2507.64 1701.7 2505.8 1701.7 2504.22 1701.82 2502.9 1702.05 2501.57 1702.28 2500.16 1702.63 2498.64 1703.12L2495.4 1701.21 2495.4 1674.55 2517.73 1674.55C2518.65 1674.55 2519.31 1674.47 2519.72 1674.33 2520.12 1674.18 2520.45 1673.95 2520.69 1673.64 2520.93 1673.33 2521.22 1672.74 2521.54 1671.87Z" fill-rule="evenodd"/><text fill="#000000" fill-opacity="0" font-family="Arial,Arial_MSFontService,sans-serif" font-size="58.6431" x="2446.89" y="1723.19">75</text><path d="M2440.69 1648.68 2532.69 1648.68 2532.69 1653.68 2440.69 1653.68Z" fill-rule="evenodd"/><path d="M2562.32 1635.25C2563.15 1635.25 2563.89 1635.35 2564.52 1635.54 2565.16 1635.72 2565.72 1636.01 2566.21 1636.41 2566.69 1636.8 2567.12 1637.3 2567.5 1637.93 2567.88 1638.55 2568.25 1639.39 2568.6 1640.46 2568.95 1641.53 2569.28 1642.85 2569.59 1644.43 2569.9 1646.01 2570.18 1647.65 2570.42 1649.35L2570.83 1649.35C2573.42 1645.71 2575.39 1643.04 2576.72 1641.35 2578.06 1639.66 2579.19 1638.41 2580.11 1637.58 2581.03 1636.76 2581.91 1636.18 2582.76 1635.84 2583.61 1635.5 2584.74 1635.33 2586.15 1635.33 2587.42 1635.33 2588.46 1635.49 2589.27 1635.82L2587.64 1643.15 2584.81 1643.15C2584.65 1642.02 2584.17 1641.45 2583.39 1641.45 2583.15 1641.45 2582.89 1641.49 2582.62 1641.57 2582.35 1641.65 2582.02 1641.83 2581.63 1642.1 2581.23 1642.37 2580.66 1642.9 2579.9 1643.68 2579.15 1644.46 2578.3 1645.42 2577.35 1646.56 2576.41 1647.69 2575.43 1648.88 2574.43 1650.12L2571.68 1653.57C2572.16 1656.16 2572.62 1658.41 2573.05 1660.3 2573.49 1662.19 2573.87 1663.76 2574.21 1665.02 2574.55 1666.28 2574.84 1667.27 2575.1 1668 2575.36 1668.73 2575.64 1669.27 2575.93 1669.64 2576.23 1670 2576.53 1670.26 2576.84 1670.41 2577.16 1670.56 2577.51 1670.63 2577.92 1670.63 2578.65 1670.63 2579.36 1670.35 2580.05 1669.78 2580.73 1669.21 2581.73 1667.93 2583.02 1665.93L2585.66 1667.67C2583.77 1670.48 2582.06 1672.46 2580.53 1673.61 2579.01 1674.76 2577.19 1675.33 2575.08 1675.33 2573.92 1675.33 2572.93 1675.12 2572.12 1674.7 2571.31 1674.29 2570.61 1673.62 2570.02 1672.7 2569.42 1671.78 2568.89 1670.35 2568.43 1668.4 2567.6 1664.94 2567.08 1662.3 2566.89 1660.46L2566.49 1660.46C2563.63 1664.49 2561.5 1667.38 2560.11 1669.13 2558.72 1670.89 2557.57 1672.19 2556.66 1673.02 2555.76 1673.86 2554.88 1674.45 2554.03 1674.79 2553.18 1675.12 2552.05 1675.29 2550.64 1675.29 2549.37 1675.29 2548.33 1675.13 2547.52 1674.81L2549.14 1667.47 2551.98 1667.47C2552.14 1668.61 2552.62 1669.17 2553.4 1669.17 2553.78 1669.17 2554.18 1669.07 2554.59 1668.87 2555.01 1668.67 2555.61 1668.18 2556.4 1667.41 2557.18 1666.64 2558.26 1665.43 2559.64 1663.78 2561.02 1662.13 2563.02 1659.66 2565.64 1656.37 2565.23 1654.23 2564.81 1652.18 2564.38 1650.21 2563.95 1648.23 2563.5 1646.4 2563.04 1644.69 2562.59 1642.99 2562.21 1641.88 2561.91 1641.35 2561.61 1640.82 2561.3 1640.46 2560.96 1640.26 2560.62 1640.05 2560.19 1639.95 2559.68 1639.95 2559.11 1639.95 2558.6 1640.08 2558.14 1640.34 2557.68 1640.59 2557.18 1641.04 2556.64 1641.67 2556.1 1642.31 2555.39 1643.3 2554.49 1644.65L2551.86 1642.91C2553.56 1640.34 2555.2 1638.43 2556.76 1637.16 2558.33 1635.89 2560.18 1635.25 2562.32 1635.25Z" fill-rule="evenodd"/><text fill="#000000" fill-opacity="0" font-family="Arial,Arial_MSFontService,sans-serif" font-size="40.0815" x="2547.52" y="1670.32"></text><path d="M2639.38 1624.92 2645.13 1624.92 2645.13 1648.26 2667.22 1648.26 2667.22 1653.65 2645.13 1653.65 2645.13 1676.99 2639.38 1676.99 2639.38 1653.65 2617.29 1653.65 2617.29 1648.26 2639.38 1648.26Z" fill-rule="evenodd"/><text fill="#000000" fill-opacity="0" font-family="Arial,Arial_MSFontService,sans-serif" font-size="52.0776" x="2617.29" y="1670.48">+</text><path d="M2714.6 1618.72C2717.66 1618.72 2720.33 1619.19 2722.63 1620.13 2724.92 1621.08 2726.68 1622.44 2727.9 1624.21 2729.11 1625.98 2729.72 1628.09 2729.72 1630.55 2729.72 1632.85 2729.26 1634.87 2728.34 1636.61 2727.42 1638.35 2726.13 1639.87 2724.47 1641.17 2722.81 1642.47 2720.65 1643.74 2718.01 1644.98L2718.01 1645.34C2719.65 1645.64 2721.24 1646.15 2722.77 1646.86 2724.29 1647.58 2725.65 1648.5 2726.84 1649.64 2728.03 1650.77 2728.98 1652.13 2729.7 1653.71 2730.41 1655.29 2730.77 1657.1 2730.77 1659.12 2730.77 1662.26 2730.09 1665.04 2728.73 1667.47 2727.36 1669.9 2725.27 1671.82 2722.46 1673.23 2719.65 1674.63 2716.24 1675.33 2712.21 1675.33 2709.89 1675.33 2707.38 1675.07 2704.69 1674.54 2702 1674.02 2699.54 1673.32 2697.3 1672.46L2697.3 1663.86 2702.16 1663.86C2703.11 1666.67 2704.36 1668.71 2705.91 1669.98 2707.46 1671.25 2709.58 1671.89 2712.25 1671.89 2715.76 1671.89 2718.42 1670.93 2720.22 1669.01 2722.01 1667.09 2722.91 1664.26 2722.91 1660.5 2722.91 1656.56 2721.72 1653.54 2719.34 1651.46 2716.97 1649.38 2713.48 1648.34 2708.89 1648.34L2705.24 1648.34 2705.24 1644.78C2708.89 1644.56 2711.96 1643.86 2714.46 1642.67 2716.96 1641.48 2718.82 1639.95 2720.03 1638.09 2721.25 1636.22 2721.86 1634.13 2721.86 1631.81 2721.86 1628.81 2721.06 1626.5 2719.47 1624.88 2717.87 1623.26 2715.55 1622.44 2712.49 1622.44 2709.95 1622.44 2707.89 1623.13 2706.29 1624.51 2704.7 1625.89 2703.52 1628 2702.77 1630.83L2697.9 1630.83 2697.9 1623.13C2701.04 1621.65 2703.97 1620.54 2706.7 1619.81 2709.43 1619.08 2712.06 1618.72 2714.6 1618.72Z" fill-rule="evenodd"/><text fill="#000000" fill-opacity="0" font-family="Arial,Arial_MSFontService,sans-serif" font-size="56.6167" x="2697.3" y="1668.26">3</text><path d="M2741.71 1665.28 2749.9 1665.28 2749.9 1674.68 2741.71 1674.68Z" fill-rule="evenodd"/><text fill="#000000" fill-opacity="0" font-family="Arial,Arial_MSFontService,sans-serif" font-size="9.40234" x="2741.71" y="1673.51">.</text><path d="M2789.13 1616.69 2792.29 1616.69 2791.69 1626.09 2768.38 1626.09 2768.38 1643.88C2769.79 1643.29 2771.31 1642.84 2772.96 1642.55 2774.61 1642.25 2776.26 1642.1 2777.91 1642.1 2781.12 1642.1 2783.97 1642.76 2786.46 1644.07 2788.94 1645.38 2790.86 1647.24 2792.21 1649.66 2793.56 1652.08 2794.24 1654.88 2794.24 1658.07 2794.24 1661.69 2793.48 1664.8 2791.97 1667.39 2790.46 1669.98 2788.27 1671.96 2785.4 1673.31 2782.54 1674.66 2779.15 1675.33 2775.23 1675.33 2770.56 1675.33 2765.67 1674.37 2760.56 1672.46L2760.56 1663.86 2765.46 1663.86C2766.28 1666.62 2767.5 1668.65 2769.13 1669.94 2770.77 1671.24 2772.88 1671.89 2775.47 1671.89 2779.07 1671.89 2781.78 1670.81 2783.62 1668.65 2785.46 1666.48 2786.38 1663.26 2786.38 1658.96 2786.38 1656.1 2785.89 1653.73 2784.92 1651.85 2783.95 1649.97 2782.63 1648.61 2780.99 1647.77 2779.34 1646.94 2777.42 1646.52 2775.23 1646.52 2773.39 1646.52 2771.81 1646.63 2770.49 1646.86 2769.17 1647.09 2767.75 1647.45 2766.23 1647.94L2762.99 1646.03 2762.99 1619.36 2785.32 1619.36C2786.24 1619.36 2786.9 1619.29 2787.31 1619.14 2787.71 1618.99 2788.04 1618.76 2788.28 1618.45 2788.52 1618.14 2788.81 1617.55 2789.13 1616.69Z" fill-rule="evenodd"/><text fill="#000000" fill-opacity="0" font-family="Arial,Arial_MSFontService,sans-serif" font-size="58.6431" x="2760.56" y="1668">5</text><path d="M2894.1 1624.92 2899.85 1624.92 2899.85 1648.26 2921.94 1648.26 2921.94 1653.65 2899.85 1653.65 2899.85 1676.99 2894.1 1676.99 2894.1 1653.65 2872.01 1653.65 2872.01 1648.26 2894.1 1648.26Z" fill-rule="evenodd"/><text fill="#000000" fill-opacity="0" font-family="Arial,Arial_MSFontService,sans-serif" font-size="52.0776" x="2872.01" y="1670.48">+</text><path d="M2968.96 1622.16C2966.93 1622.16 2965.21 1622.51 2963.81 1623.21 2962.4 1623.92 2961.26 1624.88 2960.38 1626.11 2959.51 1627.34 2958.86 1628.79 2958.46 1630.45 2958.05 1632.11 2957.85 1633.91 2957.85 1635.86 2957.85 1639.89 2958.68 1643.01 2960.32 1645.22 2961.97 1647.44 2964.3 1648.54 2967.29 1648.54 2968.32 1648.54 2969.3 1648.46 2970.23 1648.28 2971.16 1648.11 2972.08 1647.85 2972.97 1647.51 2973.86 1647.17 2974.73 1646.74 2975.58 1646.21 2976.43 1645.69 2977.2 1645.13 2977.87 1644.53 2978.12 1644.32 2978.33 1644.03 2978.52 1643.68 2978.71 1643.33 2978.86 1642.87 2978.97 1642.3 2979.07 1641.74 2979.13 1640.84 2979.13 1639.63 2979.13 1635.93 2978.76 1632.76 2978.01 1630.12 2977.27 1627.49 2976.14 1625.5 2974.61 1624.17 2973.08 1622.83 2971.2 1622.16 2968.96 1622.16ZM2969.4 1618.72C2975.08 1618.72 2979.4 1620.68 2982.37 1624.59 2985.34 1628.51 2986.83 1634.14 2986.83 1641.49 2986.83 1648.22 2985.73 1654.05 2983.55 1658.98 2981.36 1663.91 2978.29 1667.75 2974.35 1670.49 2970.4 1673.23 2965.79 1674.85 2960.53 1675.33L2958.86 1673.1 2958.86 1671.12C2962.65 1671.12 2965.92 1670.28 2968.69 1668.61 2971.46 1666.93 2973.69 1664.45 2975.38 1661.17 2977.07 1657.89 2978.2 1653.58 2978.76 1648.26L2978.36 1648.1C2976.09 1649.72 2973.85 1650.91 2971.65 1651.66 2969.45 1652.42 2967.06 1652.8 2964.5 1652.8 2961.45 1652.8 2958.84 1652.13 2956.7 1650.79 2954.55 1649.46 2952.93 1647.58 2951.85 1645.16 2950.77 1642.74 2950.23 1639.91 2950.23 1636.67 2950.23 1634.24 2950.64 1631.93 2951.45 1629.76 2952.26 1627.58 2953.46 1625.68 2955.06 1624.05 2956.65 1622.41 2958.64 1621.11 2961.03 1620.15 2963.42 1619.2 2966.21 1618.72 2969.4 1618.72Z" fill-rule="evenodd"/><text fill="#000000" fill-opacity="0" font-family="Arial,Arial_MSFontService,sans-serif" font-size="56.6167" x="2950.23" y="1668.26">9</text><path d="M967.241 600.08C969.889 600.08 972.172 600.296 974.091 600.728L972.51 607.618 968.944 607.618C968.565 606.078 968.072 604.97 967.464 604.295 966.856 603.619 965.958 603.282 964.769 603.282 963.229 603.282 961.926 603.707 960.858 604.558 959.791 605.409 958.879 606.672 958.123 608.348 957.366 610.023 956.664 612.279 956.015 615.116L955.002 619.533 965.418 619.533 964.526 623.626 954.07 623.626 946.532 658.966C945.289 664.829 943.384 669.199 940.818 672.077 938.251 674.954 935.022 676.393 931.132 676.393 929.997 676.393 929.105 676.325 928.457 676.19L929.146 672.624C929.416 672.705 930.051 672.745 931.051 672.745 932.266 672.745 933.307 672.435 934.171 671.813 935.036 671.192 935.84 670.111 936.583 668.571 937.326 667.031 938.008 664.897 938.629 662.168L947.343 623.626 940.493 623.626 941.101 620.83C942.912 620.722 944.215 620.573 945.012 620.384 945.809 620.195 946.431 619.911 946.876 619.533 947.322 619.155 947.701 618.662 948.011 618.054 948.322 617.446 948.72 616.331 949.207 614.71 950.639 609.847 952.847 606.193 955.833 603.748 958.819 601.303 962.621 600.08 967.241 600.08Z" fill-rule="evenodd"/><text fill="#000000" fill-opacity="0" font-family="Arial,Arial_MSFontService,sans-serif" font-size="76.313" x="928.457" y="666.854"></text><path d="M1008.55 599.715 1009.64 602.836C1003.32 604.916 998.636 608.976 995.597 615.014 992.557 621.053 991.038 628.638 991.038 637.77 991.038 647.227 992.557 655.022 995.597 661.155 998.636 667.288 1003.28 671.395 1009.52 673.475L1008.55 676.596C1000.63 674.515 994.563 670.037 990.349 663.161 986.134 656.285 984.026 647.956 984.026 638.176 984.026 628.422 986.141 620.094 990.369 613.191 994.597 606.287 1000.66 601.796 1008.55 599.715Z" fill-rule="evenodd"/><text fill="#000000" fill-opacity="0" font-family="Arial,Arial_MSFontService,sans-serif" font-size="76.8804" x="984.026" y="666.986">(</text><path d="M1045.76 600.283 1048.92 600.283 1048.31 609.685 1025.01 609.685 1025.01 627.476C1026.41 626.882 1027.94 626.436 1029.59 626.139 1031.23 625.842 1032.88 625.693 1034.53 625.693 1037.75 625.693 1040.6 626.348 1043.08 627.659 1045.57 628.969 1047.49 630.833 1048.84 633.252 1050.19 635.67 1050.86 638.473 1050.86 641.661 1050.86 645.281 1050.11 648.389 1048.59 650.982 1047.08 653.576 1044.89 655.548 1042.03 656.899 1039.16 658.25 1035.77 658.926 1031.86 658.926 1027.18 658.926 1022.29 657.966 1017.19 656.048L1017.19 647.456 1022.09 647.456C1022.9 650.212 1024.12 652.239 1025.76 653.536 1027.39 654.832 1029.51 655.481 1032.1 655.481 1035.69 655.481 1038.41 654.4 1040.25 652.239 1042.08 650.077 1043 646.849 1043 642.553 1043 639.689 1042.52 637.318 1041.54 635.44 1040.57 633.562 1039.26 632.205 1037.61 631.367 1035.96 630.529 1034.04 630.111 1031.86 630.111 1030.02 630.111 1028.44 630.226 1027.11 630.455 1025.79 630.685 1024.37 631.043 1022.86 631.529L1019.62 629.624 1019.62 602.957 1041.95 602.957C1042.87 602.957 1043.53 602.883 1043.93 602.734 1044.34 602.586 1044.66 602.356 1044.91 602.046 1045.15 601.735 1045.43 601.147 1045.76 600.283Z" fill-rule="evenodd"/><text fill="#000000" fill-opacity="0" font-family="Arial,Arial_MSFontService,sans-serif" font-size="58.6431" x="1017.19" y="651.595">5</text><path d="M1061.36 648.875 1069.54 648.875 1069.54 658.277 1061.36 658.277Z" fill-rule="evenodd"/><text fill="#000000" fill-opacity="0" font-family="Arial,Arial_MSFontService,sans-serif" font-size="9.40234" x="1061.36" y="657.102">.</text><path d="M1097.11 605.754C1095.24 605.754 1093.68 606.308 1092.43 607.415 1091.17 608.523 1090.16 610.117 1089.39 612.198 1088.62 614.278 1088.07 616.811 1087.74 619.797 1087.42 622.782 1087.26 626.153 1087.26 629.908 1087.26 638.716 1088.08 645.18 1089.71 649.3 1091.34 653.421 1093.88 655.481 1097.31 655.481 1100.58 655.481 1103 653.542 1104.58 649.665 1106.16 645.788 1106.95 639.783 1106.95 631.651 1106.95 625.437 1106.55 620.404 1105.74 616.554 1104.93 612.704 1103.8 609.942 1102.35 608.266 1100.91 606.591 1099.16 605.754 1097.11 605.754ZM1097.31 602.309C1103.23 602.309 1107.63 604.592 1110.52 609.158 1113.41 613.724 1114.86 620.627 1114.86 629.868 1114.86 639.432 1113.31 646.666 1110.22 651.57 1107.12 656.474 1102.6 658.926 1096.66 658.926 1090.82 658.926 1086.48 656.629 1083.63 652.036 1080.78 647.443 1079.36 640.472 1079.36 631.124 1079.36 626.153 1079.79 621.857 1080.67 618.236 1081.55 614.616 1082.78 611.623 1084.36 609.259 1085.94 606.895 1087.84 605.146 1090.05 604.011 1092.27 602.876 1094.69 602.309 1097.31 602.309Z" fill-rule="evenodd"/><text fill="#000000" fill-opacity="0" font-family="Arial,Arial_MSFontService,sans-serif" font-size="56.6167" x="1079.36" y="651.849">0</text><path d="M1122.59 599.715C1130.48 601.796 1136.54 606.287 1140.77 613.191 1145 620.094 1147.11 628.422 1147.11 638.176 1147.11 647.956 1145.01 656.285 1140.79 663.161 1136.58 670.037 1130.51 674.515 1122.59 676.596L1121.62 673.475C1127.86 671.395 1132.5 667.288 1135.54 661.155 1138.58 655.022 1140.1 647.227 1140.1 637.77 1140.1 628.638 1138.59 621.053 1135.56 615.014 1132.54 608.976 1127.85 604.916 1121.5 602.836Z" fill-rule="evenodd"/><text fill="#000000" fill-opacity="0" font-family="Arial,Arial_MSFontService,sans-serif" font-size="76.8804" x="1121.5" y="666.986">)</text><path d="M1183.29 640.283 1233.22 640.283 1233.22 645.673 1183.29 645.673ZM1183.29 623.464 1233.22 623.464 1233.22 628.854 1183.29 628.854Z" fill-rule="evenodd"/><text fill="#000000" fill-opacity="0" font-family="Arial,Arial_MSFontService,sans-serif" font-size="22.209" x="1183.29" y="642.897">=</text><text font-family="Arial,Arial_MSFontService,sans-serif" font-weight="400" font-size="83" transform="matrix(1 0 0 1 1257.46 658)">10.00</text><path d="M967.241 700.998C969.889 700.998 972.172 701.214 974.091 701.647L972.51 708.536 968.944 708.536C968.565 706.996 968.072 705.888 967.464 705.213 966.856 704.537 965.958 704.2 964.769 704.2 963.229 704.2 961.926 704.625 960.858 705.476 959.791 706.327 958.879 707.591 958.123 709.266 957.366 710.941 956.664 713.197 956.015 716.034L955.002 720.451 965.418 720.451 964.526 724.544 954.07 724.544 946.532 759.884C945.289 765.747 943.384 770.117 940.818 772.995 938.251 775.872 935.022 777.311 931.132 777.311 929.997 777.311 929.105 777.244 928.457 777.108L929.146 773.542C929.416 773.623 930.051 773.664 931.051 773.664 932.266 773.664 933.307 773.353 934.171 772.732 935.036 772.11 935.84 771.029 936.583 769.489 937.326 767.949 938.008 765.815 938.629 763.086L947.343 724.544 940.493 724.544 941.101 721.748C942.912 721.64 944.215 721.491 945.012 721.302 945.809 721.113 946.431 720.829 946.876 720.451 947.322 720.073 947.701 719.58 948.011 718.972 948.322 718.364 948.72 717.25 949.207 715.628 950.639 710.765 952.847 707.111 955.833 704.666 958.819 702.221 962.621 700.998 967.241 700.998Z" fill-rule="evenodd"/><text fill="#000000" fill-opacity="0" font-family="Arial,Arial_MSFontService,sans-serif" font-size="76.313" x="928.457" y="767.772"></text><path d="M1008.55 700.633 1009.64 703.754C1003.32 705.834 998.636 709.894 995.597 715.932 992.557 721.971 991.038 729.556 991.038 738.689 991.038 748.145 992.557 755.94 995.597 762.073 998.636 768.206 1003.28 772.313 1009.52 774.393L1008.55 777.514C1000.63 775.433 994.563 770.955 990.349 764.079 986.134 757.203 984.026 748.874 984.026 739.094 984.026 729.34 986.141 721.012 990.369 714.109 994.597 707.206 1000.66 702.714 1008.55 700.633Z" fill-rule="evenodd"/><text fill="#000000" fill-opacity="0" font-family="Arial,Arial_MSFontService,sans-serif" font-size="76.8804" x="984.026" y="767.904">(</text><path d="M1035.95 730.016C1034.63 730.016 1033.35 730.164 1032.12 730.461 1030.89 730.759 1029.74 731.191 1028.65 731.758 1027.57 732.326 1026.52 733.042 1025.49 733.906 1025.17 734.203 1024.93 734.514 1024.76 734.838 1024.49 735.352 1024.32 735.987 1024.24 736.743 1024.16 737.5 1024.12 738.77 1024.12 740.553 1024.12 745.713 1024.98 749.644 1026.71 752.346 1028.44 755.048 1031.06 756.399 1034.57 756.399 1036.6 756.399 1038.3 756.048 1039.68 755.345 1041.06 754.643 1042.17 753.677 1043.02 752.448 1043.87 751.218 1044.48 749.773 1044.85 748.111 1045.21 746.45 1045.39 744.646 1045.39 742.701 1045.39 738.702 1044.57 735.588 1042.92 733.359 1041.27 731.13 1038.95 730.016 1035.95 730.016ZM1046.37 703.227 1048.03 705.456 1048.03 707.442C1043.87 707.442 1040.18 708.334 1036.96 710.117 1033.75 711.9 1031.08 714.521 1028.96 717.979 1026.84 721.437 1025.34 725.544 1024.48 730.299L1024.89 730.461C1027.16 728.84 1029.39 727.652 1031.59 726.895 1033.79 726.139 1036.18 725.76 1038.75 725.76 1041.8 725.76 1044.4 726.429 1046.55 727.766 1048.7 729.104 1050.31 730.982 1051.39 733.4 1052.47 735.818 1053.01 738.648 1053.01 741.89 1053.01 745.403 1052.34 748.503 1050.99 751.191 1049.63 753.88 1047.55 755.994 1044.72 757.534 1041.9 759.074 1038.42 759.844 1034.29 759.844 1028.37 759.844 1023.91 758.007 1020.89 754.332 1017.88 750.658 1016.37 745.24 1016.37 738.081 1016.37 733.271 1017.13 728.773 1018.64 724.585 1020.16 720.397 1022.31 716.743 1025.09 713.622 1027.87 710.502 1031.1 708.043 1034.77 706.246 1038.45 704.45 1042.31 703.443 1046.37 703.227Z" fill-rule="evenodd"/><text fill="#000000" fill-opacity="0" font-family="Arial,Arial_MSFontService,sans-serif" font-size="56.6167" x="1016.37" y="752.767">6</text><path d="M1061.36 749.793 1069.54 749.793 1069.54 759.195 1061.36 759.195Z" fill-rule="evenodd"/><text fill="#000000" fill-opacity="0" font-family="Arial,Arial_MSFontService,sans-serif" font-size="9.40234" x="1061.36" y="758.02">.</text><path d="M1108.78 701.201 1111.94 701.201 1111.33 710.603 1088.03 710.603 1088.03 728.395C1089.43 727.8 1090.96 727.354 1092.61 727.057 1094.26 726.76 1095.9 726.611 1097.55 726.611 1100.77 726.611 1103.62 727.267 1106.1 728.577 1108.59 729.887 1110.51 731.752 1111.86 734.17 1113.21 736.588 1113.88 739.391 1113.88 742.579 1113.88 746.2 1113.13 749.307 1111.61 751.9 1110.1 754.494 1107.91 756.467 1105.05 757.817 1102.19 759.168 1098.79 759.844 1094.88 759.844 1090.2 759.844 1085.31 758.885 1080.21 756.966L1080.21 748.375 1085.11 748.375C1085.92 751.13 1087.14 753.157 1088.78 754.454 1090.41 755.751 1092.53 756.399 1095.12 756.399 1098.71 756.399 1101.43 755.318 1103.27 753.157 1105.1 750.995 1106.02 747.767 1106.02 743.471 1106.02 740.607 1105.54 738.236 1104.56 736.358 1103.59 734.48 1102.28 733.123 1100.63 732.285 1098.98 731.448 1097.07 731.029 1094.88 731.029 1093.04 731.029 1091.46 731.144 1090.14 731.373 1088.81 731.603 1087.39 731.961 1085.88 732.447L1082.64 730.543 1082.64 703.876 1104.97 703.876C1105.89 703.876 1106.55 703.801 1106.95 703.653 1107.36 703.504 1107.68 703.274 1107.93 702.964 1108.17 702.653 1108.45 702.065 1108.78 701.201Z" fill-rule="evenodd"/><text fill="#000000" fill-opacity="0" font-family="Arial,Arial_MSFontService,sans-serif" font-size="58.6431" x="1080.21" y="752.513">5</text><path d="M1122.59 700.633C1130.48 702.714 1136.54 707.206 1140.77 714.109 1145 721.012 1147.11 729.34 1147.11 739.094 1147.11 748.874 1145.01 757.203 1140.79 764.079 1136.58 770.955 1130.51 775.433 1122.59 777.514L1121.62 774.393C1127.86 772.313 1132.5 768.206 1135.54 762.073 1138.58 755.94 1140.1 748.145 1140.1 738.689 1140.1 729.556 1138.59 721.971 1135.56 715.932 1132.54 709.894 1127.85 705.834 1121.5 703.754Z" fill-rule="evenodd"/><text fill="#000000" fill-opacity="0" font-family="Arial,Arial_MSFontService,sans-serif" font-size="76.8804" x="1121.5" y="767.904">)</text><path d="M1183.29 741.201 1233.22 741.201 1233.22 746.591 1183.29 746.591ZM1183.29 724.382 1233.22 724.382 1233.22 729.773 1183.29 729.773Z" fill-rule="evenodd"/><text fill="#000000" fill-opacity="0" font-family="Arial,Arial_MSFontService,sans-serif" font-size="22.209" x="1183.29" y="743.815">=</text><text font-family="Arial,Arial_MSFontService,sans-serif" font-weight="400" font-size="83" transform="matrix(1 0 0 1 1257.46 759)">9.83</text><path d="M967.241 801.916C969.889 801.916 972.172 802.132 974.091 802.564L972.51 809.454 968.944 809.454C968.565 807.914 968.072 806.806 967.464 806.131 966.856 805.455 965.958 805.118 964.769 805.118 963.229 805.118 961.926 805.543 960.858 806.394 959.791 807.245 958.879 808.508 958.123 810.183 957.366 811.859 956.664 814.115 956.015 816.952L955.002 821.369 965.418 821.369 964.526 825.462 954.07 825.462 946.532 860.802C945.289 866.665 943.384 871.035 940.818 873.913 938.251 876.79 935.022 878.229 931.132 878.229 929.997 878.229 929.105 878.161 928.457 878.026L929.146 874.46C929.416 874.541 930.051 874.581 931.051 874.581 932.266 874.581 933.307 874.271 934.171 873.649 935.036 873.028 935.84 871.947 936.583 870.407 937.326 868.867 938.008 866.733 938.629 864.004L947.343 825.462 940.493 825.462 941.101 822.666C942.912 822.558 944.215 822.409 945.012 822.22 945.809 822.031 946.431 821.747 946.876 821.369 947.322 820.991 947.701 820.498 948.011 819.89 948.322 819.282 948.72 818.167 949.207 816.546 950.639 811.683 952.847 808.029 955.833 805.584 958.819 803.138 962.621 801.916 967.241 801.916Z" fill-rule="evenodd"/><text fill="#000000" fill-opacity="0" font-family="Arial,Arial_MSFontService,sans-serif" font-size="76.313" x="928.457" y="868.69"></text><path d="M1008.55 801.551 1009.64 804.672C1003.32 806.752 998.636 810.812 995.597 816.85 992.557 822.889 991.038 830.474 991.038 839.606 991.038 849.063 992.557 856.857 995.597 862.991 998.636 869.124 1003.28 873.231 1009.52 875.311L1008.55 878.432C1000.63 876.351 994.563 871.873 990.349 864.997 986.134 858.121 984.026 849.792 984.026 840.012 984.026 830.258 986.141 821.93 990.369 815.026 994.597 808.123 1000.66 803.632 1008.55 801.551Z" fill-rule="evenodd"/><text fill="#000000" fill-opacity="0" font-family="Arial,Arial_MSFontService,sans-serif" font-size="76.8804" x="984.026" y="868.821">(</text><path d="M1034.09 833.122C1032.09 833.122 1030.4 833.433 1029.04 834.054 1027.68 834.675 1026.57 835.513 1025.72 836.567 1024.87 837.62 1024.26 838.857 1023.89 840.275 1023.53 841.693 1023.35 843.213 1023.35 844.834 1023.35 846.591 1023.55 848.232 1023.95 849.758 1024.36 851.285 1025 852.602 1025.88 853.71 1026.76 854.818 1027.88 855.696 1029.26 856.344 1030.64 856.993 1032.32 857.317 1034.29 857.317 1036.5 857.317 1038.4 856.864 1039.98 855.959 1041.56 855.054 1042.77 853.71 1043.59 851.927 1044.41 850.143 1044.83 848.036 1044.83 845.604 1044.83 843.011 1044.38 840.775 1043.49 838.897 1042.6 837.019 1041.34 835.587 1039.72 834.601 1038.1 833.615 1036.22 833.122 1034.09 833.122ZM1034.29 807.59C1030.88 807.59 1028.28 808.515 1026.49 810.366 1024.69 812.217 1023.79 814.844 1023.79 818.248 1023.79 819.842 1023.98 821.342 1024.36 822.747 1024.74 824.152 1025.34 825.368 1026.18 826.394 1027.02 827.421 1028.11 828.238 1029.44 828.846 1030.78 829.454 1032.42 829.758 1034.37 829.758 1036.61 829.758 1038.5 829.319 1040.02 828.441 1041.55 827.563 1042.68 826.28 1043.43 824.591 1044.17 822.902 1044.54 820.95 1044.54 818.735 1044.54 816.303 1044.1 814.243 1043.22 812.554 1042.35 810.866 1041.14 809.616 1039.6 808.806 1038.06 807.995 1036.29 807.59 1034.29 807.59ZM1034.37 804.145C1038.26 804.145 1041.53 804.692 1044.18 805.786 1046.82 806.88 1048.82 808.461 1050.15 810.528 1051.49 812.595 1052.16 815.074 1052.16 817.965 1052.16 820.937 1051.43 823.497 1049.97 825.645 1048.51 827.793 1046.26 829.542 1043.2 830.893L1043.29 831.42C1046.34 832.609 1048.65 834.345 1050.22 836.628 1051.78 838.911 1052.57 841.66 1052.57 844.875 1052.57 848.036 1051.81 850.819 1050.3 853.224 1048.78 855.628 1046.59 857.486 1043.71 858.796 1040.83 860.106 1037.48 860.762 1033.64 860.762 1030.05 860.762 1026.89 860.16 1024.18 858.958 1021.46 857.756 1019.35 856 1017.85 853.69 1016.35 851.38 1015.6 848.657 1015.6 845.523 1015.6 843.173 1016.01 841.133 1016.82 839.404 1017.63 837.674 1018.69 836.249 1020 835.128 1021.31 834.007 1022.97 832.987 1024.97 832.068L1024.89 831.541C1019.08 829.029 1016.17 824.719 1016.17 818.613 1016.17 815.83 1016.94 813.345 1018.46 811.156 1019.99 808.968 1022.16 807.252 1024.99 806.009 1027.81 804.766 1030.94 804.145 1034.37 804.145Z" fill-rule="evenodd"/><text fill="#000000" fill-opacity="0" font-family="Arial,Arial_MSFontService,sans-serif" font-size="56.6167" x="1015.6" y="853.685">8</text><path d="M1061.36 850.711 1069.54 850.711 1069.54 860.113 1061.36 860.113Z" fill-rule="evenodd"/><text fill="#000000" fill-opacity="0" font-family="Arial,Arial_MSFontService,sans-serif" font-size="9.40234" x="1061.36" y="858.938">.</text><path d="M1108.78 802.119 1111.94 802.119 1111.33 811.521 1088.03 811.521 1088.03 829.312C1089.43 828.718 1090.96 828.272 1092.61 827.975 1094.26 827.678 1095.9 827.529 1097.55 827.529 1100.77 827.529 1103.62 828.184 1106.1 829.495 1108.59 830.805 1110.51 832.669 1111.86 835.088 1113.21 837.506 1113.88 840.309 1113.88 843.497 1113.88 847.117 1113.13 850.224 1111.61 852.818 1110.1 855.412 1107.91 857.384 1105.05 858.735 1102.19 860.086 1098.79 860.762 1094.88 860.762 1090.2 860.762 1085.31 859.802 1080.21 857.884L1080.21 849.292 1085.11 849.292C1085.92 852.048 1087.14 854.075 1088.78 855.371 1090.41 856.668 1092.53 857.317 1095.12 857.317 1098.71 857.317 1101.43 856.236 1103.27 854.075 1105.1 851.913 1106.02 848.684 1106.02 844.389 1106.02 841.525 1105.54 839.154 1104.56 837.276 1103.59 835.398 1102.28 834.041 1100.63 833.203 1098.98 832.365 1097.07 831.947 1094.88 831.947 1093.04 831.947 1091.46 832.061 1090.14 832.291 1088.81 832.521 1087.39 832.879 1085.88 833.365L1082.64 831.46 1082.64 804.793 1104.97 804.793C1105.89 804.793 1106.55 804.719 1106.95 804.57 1107.36 804.422 1107.68 804.192 1107.93 803.881 1108.17 803.571 1108.45 802.983 1108.78 802.119Z" fill-rule="evenodd"/><text fill="#000000" fill-opacity="0" font-family="Arial,Arial_MSFontService,sans-serif" font-size="58.6431" x="1080.21" y="853.431">5</text><path d="M1122.59 801.551C1130.48 803.632 1136.54 808.123 1140.77 815.026 1145 821.93 1147.11 830.258 1147.11 840.012 1147.11 849.792 1145.01 858.121 1140.79 864.997 1136.58 871.873 1130.51 876.351 1122.59 878.432L1121.62 875.311C1127.86 873.231 1132.5 869.124 1135.54 862.991 1138.58 856.857 1140.1 849.063 1140.1 839.606 1140.1 830.474 1138.59 822.889 1135.56 816.85 1132.54 810.812 1127.85 806.752 1121.5 804.672Z" fill-rule="evenodd"/><text fill="#000000" fill-opacity="0" font-family="Arial,Arial_MSFontService,sans-serif" font-size="76.8804" x="1121.5" y="868.821">)</text><path d="M1183.29 842.119 1233.22 842.119 1233.22 847.509 1183.29 847.509ZM1183.29 825.3 1233.22 825.3 1233.22 830.69 1183.29 830.69Z" fill-rule="evenodd"/><text fill="#000000" fill-opacity="0" font-family="Arial,Arial_MSFontService,sans-serif" font-size="22.209" x="1183.29" y="844.733">=</text><text font-family="Arial,Arial_MSFontService,sans-serif" font-weight="400" font-size="83" transform="matrix(1 0 0 1 1257.46 860)">9.75</text><path d="M967.241 1746.76C969.889 1746.76 972.172 1746.98 974.091 1747.41L972.51 1754.3 968.944 1754.3C968.565 1752.76 968.072 1751.65 967.464 1750.98 966.856 1750.3 965.958 1749.96 964.769 1749.96 963.229 1749.96 961.926 1750.39 960.858 1751.24 959.791 1752.09 958.879 1753.35 958.123 1755.03 957.366 1756.7 956.664 1758.96 956.015 1761.8L955.002 1766.22 965.418 1766.22 964.526 1770.31 954.07 1770.31 946.532 1805.65C945.289 1811.51 943.384 1815.88 940.818 1818.76 938.251 1821.64 935.022 1823.08 931.132 1823.08 929.997 1823.08 929.105 1823.01 928.457 1822.87L929.146 1819.31C929.416 1819.39 930.051 1819.43 931.051 1819.43 932.266 1819.43 933.307 1819.12 934.171 1818.5 935.036 1817.87 935.84 1816.79 936.583 1815.25 937.326 1813.71 938.008 1811.58 938.629 1808.85L947.343 1770.31 940.493 1770.31 941.101 1767.51C942.912 1767.4 944.215 1767.26 945.012 1767.07 945.809 1766.88 946.431 1766.59 946.876 1766.22 947.322 1765.84 947.701 1765.34 948.011 1764.74 948.322 1764.13 948.72 1763.01 949.207 1761.39 950.639 1756.53 952.847 1752.88 955.833 1750.43 958.819 1747.98 962.621 1746.76 967.241 1746.76Z" fill-rule="evenodd"/><text fill="#000000" fill-opacity="0" font-family="Arial,Arial_MSFontService,sans-serif" font-size="76.313" x="928.457" y="1813.54"></text><path d="M1008.55 1746.4 1009.64 1749.52C1003.32 1751.6 998.636 1755.66 995.597 1761.7 992.557 1767.73 991.038 1775.32 991.038 1784.45 991.038 1793.91 992.557 1801.7 995.597 1807.84 998.636 1813.97 1003.28 1818.08 1009.52 1820.16L1008.55 1823.28C1000.63 1821.2 994.563 1816.72 990.349 1809.84 986.134 1802.97 984.026 1794.64 984.026 1784.86 984.026 1775.1 986.141 1766.78 990.369 1759.87 994.597 1752.97 1000.66 1748.48 1008.55 1746.4Z" fill-rule="evenodd"/><text fill="#000000" fill-opacity="0" font-family="Arial,Arial_MSFontService,sans-serif" font-size="76.8804" x="984.026" y="1813.67">(</text><path d="M1126.09 1752.44C1124.22 1752.44 1122.66 1752.99 1121.4 1754.1 1120.15 1755.21 1119.13 1756.8 1118.36 1758.88 1117.59 1760.96 1117.05 1763.49 1116.72 1766.48 1116.4 1769.46 1116.24 1772.83 1116.24 1776.59 1116.24 1785.4 1117.05 1791.86 1118.69 1795.98 1120.32 1800.1 1122.86 1802.16 1126.29 1802.16 1129.56 1802.16 1131.98 1800.22 1133.56 1796.35 1135.14 1792.47 1135.93 1786.47 1135.93 1778.33 1135.93 1772.12 1135.53 1767.09 1134.72 1763.24 1133.91 1759.39 1132.78 1756.62 1131.33 1754.95 1129.89 1753.27 1128.14 1752.44 1126.09 1752.44ZM1126.29 1748.99C1132.2 1748.99 1136.61 1751.27 1139.5 1755.84 1142.39 1760.41 1143.84 1767.31 1143.84 1776.55 1143.84 1786.11 1142.29 1793.35 1139.2 1798.25 1136.1 1803.16 1131.58 1805.61 1125.64 1805.61 1119.8 1805.61 1115.46 1803.31 1112.61 1798.72 1109.76 1794.12 1108.33 1787.15 1108.33 1777.81 1108.33 1772.83 1108.77 1768.54 1109.65 1764.92 1110.53 1761.3 1111.76 1758.31 1113.34 1755.94 1114.92 1753.58 1116.82 1751.83 1119.03 1750.69 1121.25 1749.56 1123.67 1748.99 1126.29 1748.99ZM1083.29 1748.99 1085.52 1748.99C1085.35 1751.58 1085.27 1755.18 1085.27 1759.77L1085.27 1794.38C1085.27 1795.95 1085.36 1797.13 1085.54 1797.93 1085.71 1798.72 1086.02 1799.37 1086.47 1799.87 1086.91 1800.37 1087.56 1800.76 1088.39 1801.05 1089.23 1801.33 1090.28 1801.55 1091.55 1801.7 1092.82 1801.85 1094.5 1801.95 1096.58 1802L1096.58 1804.96 1066.63 1804.96 1066.63 1802C1069.63 1801.87 1071.77 1801.68 1073.05 1801.45 1074.34 1801.22 1075.32 1800.88 1075.99 1800.42 1076.67 1799.96 1077.16 1799.31 1077.47 1798.47 1077.78 1797.64 1077.94 1796.27 1077.94 1794.38L1077.94 1761.51C1077.94 1760.43 1077.75 1759.64 1077.37 1759.14 1076.99 1758.64 1076.44 1758.39 1075.71 1758.39 1074.84 1758.39 1073.61 1758.84 1072.02 1759.73 1070.43 1760.62 1068.45 1761.85 1066.1 1763.42L1064.32 1760.3ZM1037.29 1748.99 1039.52 1748.99C1039.35 1751.58 1039.27 1755.18 1039.27 1759.77L1039.27 1794.38C1039.27 1795.95 1039.36 1797.13 1039.54 1797.93 1039.71 1798.72 1040.02 1799.37 1040.47 1799.87 1040.91 1800.37 1041.56 1800.76 1042.39 1801.05 1043.23 1801.33 1044.28 1801.55 1045.55 1801.7 1046.82 1801.85 1048.5 1801.95 1050.58 1802L1050.58 1804.96 1020.63 1804.96 1020.63 1802C1023.63 1801.87 1025.77 1801.68 1027.05 1801.45 1028.34 1801.22 1029.32 1800.88 1029.99 1800.42 1030.67 1799.96 1031.16 1799.31 1031.47 1798.47 1031.78 1797.64 1031.94 1796.27 1031.94 1794.38L1031.94 1761.51C1031.94 1760.43 1031.75 1759.64 1031.37 1759.14 1030.99 1758.64 1030.44 1758.39 1029.71 1758.39 1028.84 1758.39 1027.61 1758.84 1026.02 1759.73 1024.43 1760.62 1022.45 1761.85 1020.1 1763.42L1018.32 1760.3Z" fill-rule="evenodd"/><text fill="#000000" fill-opacity="0" font-family="Arial,Arial_MSFontService,sans-serif" font-size="56.6167" x="1018.32" y="1798.53">110</text><path d="M1151.24 1746.4C1159.13 1748.48 1165.19 1752.97 1169.42 1759.87 1173.65 1766.78 1175.76 1775.1 1175.76 1784.86 1175.76 1794.64 1173.65 1802.97 1169.44 1809.84 1165.22 1816.72 1159.16 1821.2 1151.24 1823.28L1150.27 1820.16C1156.51 1818.08 1161.15 1813.97 1164.19 1807.84 1167.23 1801.7 1168.75 1793.91 1168.75 1784.45 1168.75 1775.32 1167.24 1767.73 1164.21 1761.7 1161.18 1755.66 1156.5 1751.6 1150.15 1749.52Z" fill-rule="evenodd"/><text fill="#000000" fill-opacity="0" font-family="Arial,Arial_MSFontService,sans-serif" font-size="76.8804" x="1150.15" y="1813.67">)</text><path d="M1211.94 1786.97 1261.87 1786.97 1261.87 1792.36 1211.94 1792.36ZM1211.94 1770.15 1261.87 1770.15 1261.87 1775.54 1211.94 1775.54Z" fill-rule="evenodd"/><text fill="#000000" fill-opacity="0" font-family="Arial,Arial_MSFontService,sans-serif" font-size="22.209" x="1211.94" y="1789.58">=</text><text font-family="Arial,Arial_MSFontService,sans-serif" font-weight="400" font-size="83" transform="matrix(1 0 0 1 1267.77 1805)">2.98<tspan font-size="83" x="707.084" y="-1315">Proximity Sensor </tspan>Weight<tspan font-size="83" x="-344.851" y="-472">Utility </tspan><tspan font-size="83" x="-344.851" y="-373">Function</tspan></text><path d="M1495.04 1301.85 1502.27 1302.11 1509.47 1302.86 1516.66 1304.06 1523.86 1305.77 1530.92 1307.85 1537.92 1310.44 1544.85 1313.39 1551.72 1316.73 1558.4 1320.45 1565.02 1324.61 1577.71 1333.79 1589.79 1344.29 1601.04 1355.93 1611.35 1368.56 1620.66 1382.08 1628.89 1396.34 1635.87 1411.25 1641.47 1426.65 1643.73 1434.52 1645.62 1442.45 1647.13 1450.51 1648.2 1458.57 1648.83 1466.63 1649.08 1474.71 1649.33 1482.78 1649.33 1482.72 1649.95 1490.72 1649.95 1490.66 1651.01 1498.66 1651 1498.6 1652.5 1506.6 1652.49 1506.55 1654.36 1514.42 1654.35 1514.37 1656.6 1522.18 1656.58 1522.11 1662.14 1537.42 1662.1 1537.33 1669.04 1552.14 1668.99 1552.06 1677.12 1566.24 1677.07 1566.16 1686.38 1579.6 1686.33 1579.53 1696.58 1592.09 1696.51 1592.02 1707.7 1603.58 1707.63 1603.51 1719.63 1613.95 1719.55 1613.88 1732.17 1623.01 1732.11 1622.97 1738.61 1627.1 1738.55 1627.06 1745.24 1630.75 1745.19 1630.72 1751.94 1634.03 1751.89 1634.01 1758.76 1636.95 1758.71 1636.93 1765.65 1639.49 1765.57 1639.46 1772.63 1641.53 1772.49 1641.49 1778.27 1642.38 1777.92 1644.65 1772.06 1643.75 1764.89 1641.65 1757.89 1639.07 1750.96 1636.1 1744.16 1632.77 1737.42 1629.05 1730.86 1624.89 1718.16 1615.71 1706.09 1605.21 1694.83 1593.57 1684.52 1580.94 1675.16 1567.42 1666.98 1553.15 1660 1538.25 1654.41 1522.85 1652.14 1514.98 1650.25 1507.05 1648.74 1498.99 1647.67 1490.93 1647.04 1482.88 1646.79 1474.79 1646.54 1466.72 1646.55 1466.78 1645.92 1458.78 1645.93 1458.84 1644.86 1450.84 1644.87 1450.9 1643.37 1442.9 1643.39 1442.95 1641.51 1435.08 1641.52 1435.13 1639.27 1427.32 1639.3 1427.39 1633.74 1412.08 1633.77 1412.17 1626.84 1397.36 1626.88 1397.45 1618.7 1383.26 1618.74 1383.34 1609.49 1369.9 1609.55 1369.97 1599.3 1357.41 1599.36 1357.48 1588.18 1345.92 1588.25 1345.99 1576.25 1335.55 1576.33 1335.62 1563.7 1326.49 1563.77 1326.53 1557.2 1322.41 1557.26 1322.44 1550.63 1318.75 1550.69 1318.78 1543.87 1315.47 1543.92 1315.49 1537.05 1312.55 1537.1 1312.57 1530.17 1310.01 1530.24 1310.04 1523.24 1307.97 1523.3 1307.99 1516.17 1306.3 1516.25 1306.32 1509.12 1305.13 1509.19 1305.14 1502.07 1304.39 1502.15 1304.4 1494.96 1304.15ZM1775.34 1629.29 1800.81 1646.5 1771.76 1656.55Z"/></g></svg>